<svg width="275" height="304" viewBox="0 0 275 304" fill="none" xmlns="http://www.w3.org/2000/svg">
<rect width="275" height="304" rx="9" fill="#202A44"/>
<path d="M59.6141 48.456C58.0301 48.456 56.6461 48.184 55.4621 47.64C54.2941 47.08 53.3261 46.352 52.5581 45.456C51.7901 44.544 51.2141 43.56 50.8301 42.504C50.4621 41.448 50.2781 40.432 50.2781 39.456V38.928C50.2781 37.84 50.4701 36.768 50.8541 35.712C51.2541 34.64 51.8461 33.672 52.6301 32.808C53.4141 31.944 54.3901 31.256 55.5581 30.744C56.7261 30.216 58.0781 29.952 59.6141 29.952C61.1501 29.952 62.5021 30.216 63.6701 30.744C64.8381 31.256 65.8141 31.944 66.5981 32.808C67.3821 33.672 67.9741 34.64 68.3741 35.712C68.7741 36.768 68.9741 37.84 68.9741 38.928V39.456C68.9741 40.432 68.7821 41.448 68.3981 42.504C68.0141 43.56 67.4381 44.544 66.6701 45.456C65.9021 46.352 64.9261 47.08 63.7421 47.64C62.5741 48.184 61.1981 48.456 59.6141 48.456ZM59.6141 44.784C60.4461 44.784 61.1901 44.64 61.8461 44.352C62.5181 44.064 63.0861 43.664 63.5501 43.152C64.0301 42.64 64.3901 42.048 64.6301 41.376C64.8701 40.704 64.9901 39.984 64.9901 39.216C64.9901 38.4 64.8621 37.656 64.6061 36.984C64.3661 36.296 64.0061 35.704 63.5261 35.208C63.0621 34.696 62.5021 34.304 61.8461 34.032C61.1901 33.76 60.4461 33.624 59.6141 33.624C58.7821 33.624 58.0381 33.76 57.3821 34.032C56.7261 34.304 56.1581 34.696 55.6781 35.208C55.2141 35.704 54.8621 36.296 54.6221 36.984C54.3821 37.656 54.2621 38.4 54.2621 39.216C54.2621 39.984 54.3821 40.704 54.6221 41.376C54.8621 42.048 55.2141 42.64 55.6781 43.152C56.1581 43.664 56.7261 44.064 57.3821 44.352C58.0381 44.64 58.7821 44.784 59.6141 44.784ZM76.1803 48.408C74.6603 48.408 73.4923 47.92 72.6763 46.944C71.8603 45.952 71.4523 44.464 71.4523 42.48V34.848H75.2923V42.672C75.2923 43.376 75.4923 43.936 75.8923 44.352C76.2923 44.768 76.8283 44.976 77.5003 44.976C78.1883 44.976 78.7483 44.76 79.1803 44.328C79.6123 43.896 79.8283 43.312 79.8283 42.576V34.848H83.6683V48H80.6203V42.456H80.8843C80.8843 43.784 80.7083 44.896 80.3563 45.792C80.0203 46.672 79.5163 47.328 78.8443 47.76C78.1723 48.192 77.3403 48.408 76.3483 48.408H76.1803ZM87.209 48V34.848H90.257V40.488H90.185C90.185 38.632 90.577 37.2 91.361 36.192C92.161 35.184 93.313 34.68 94.817 34.68H95.321V37.992H94.361C93.305 37.992 92.489 38.28 91.913 38.856C91.337 39.416 91.049 40.232 91.049 41.304V48H87.209ZM106.022 42.984V39.576H109.166C109.774 39.576 110.294 39.456 110.726 39.216C111.174 38.976 111.518 38.64 111.758 38.208C111.998 37.76 112.118 37.248 112.118 36.672C112.118 36.064 111.998 35.544 111.758 35.112C111.518 34.664 111.174 34.328 110.726 34.104C110.294 33.864 109.774 33.744 109.166 33.744H106.022V30.336H108.974C110.462 30.336 111.734 30.584 112.79 31.08C113.862 31.576 114.678 32.28 115.238 33.192C115.814 34.104 116.102 35.2 116.102 36.48V36.864C116.102 38.112 115.814 39.2 115.238 40.128C114.678 41.04 113.862 41.744 112.79 42.24C111.734 42.736 110.462 42.984 108.974 42.984H106.022ZM102.566 48V30.336H106.502V48H102.566ZM118.475 48V34.848H121.523V40.488H121.451C121.451 38.632 121.843 37.2 122.627 36.192C123.427 35.184 124.579 34.68 126.083 34.68H126.587V37.992H125.627C124.571 37.992 123.755 38.28 123.179 38.856C122.603 39.416 122.315 40.232 122.315 41.304V48H118.475ZM134.914 48.456C133.762 48.456 132.738 48.28 131.842 47.928C130.946 47.56 130.186 47.064 129.562 46.44C128.954 45.816 128.49 45.104 128.17 44.304C127.85 43.488 127.69 42.632 127.69 41.736V41.184C127.69 40.272 127.85 39.408 128.17 38.592C128.506 37.76 128.986 37.032 129.61 36.408C130.25 35.784 131.018 35.296 131.914 34.944C132.81 34.576 133.81 34.392 134.914 34.392C136.05 34.392 137.058 34.576 137.938 34.944C138.834 35.296 139.594 35.784 140.218 36.408C140.842 37.032 141.322 37.76 141.658 38.592C141.994 39.408 142.162 40.272 142.162 41.184V41.736C142.162 42.632 142.002 43.488 141.682 44.304C141.362 45.104 140.89 45.816 140.266 46.44C139.658 47.064 138.906 47.56 138.01 47.928C137.114 48.28 136.082 48.456 134.914 48.456ZM134.914 45.216C135.666 45.216 136.29 45.056 136.786 44.736C137.282 44.416 137.658 43.968 137.914 43.392C138.186 42.816 138.322 42.176 138.322 41.472C138.322 40.72 138.186 40.064 137.914 39.504C137.642 38.928 137.25 38.472 136.738 38.136C136.242 37.8 135.634 37.632 134.914 37.632C134.21 37.632 133.602 37.8 133.09 38.136C132.578 38.472 132.186 38.928 131.914 39.504C131.658 40.064 131.53 40.72 131.53 41.472C131.53 42.176 131.658 42.816 131.914 43.392C132.17 43.968 132.554 44.416 133.066 44.736C133.578 45.056 134.194 45.216 134.914 45.216ZM150.266 48.432C149.338 48.432 148.49 48.264 147.722 47.928C146.97 47.592 146.314 47.128 145.754 46.536C145.194 45.928 144.762 45.216 144.458 44.4C144.17 43.584 144.026 42.704 144.026 41.76V41.208C144.026 40.264 144.162 39.384 144.434 38.568C144.722 37.752 145.13 37.04 145.658 36.432C146.202 35.808 146.85 35.328 147.602 34.992C148.354 34.64 149.194 34.464 150.122 34.464C151.178 34.464 152.09 34.696 152.858 35.16C153.626 35.608 154.226 36.28 154.658 37.176C155.09 38.056 155.33 39.144 155.378 40.44L154.37 39.504V30.48H158.234V48H155.186V42.552H155.714C155.666 43.8 155.402 44.864 154.922 45.744C154.458 46.624 153.826 47.296 153.026 47.76C152.226 48.208 151.306 48.432 150.266 48.432ZM151.226 45.216C151.818 45.216 152.354 45.088 152.834 44.832C153.33 44.56 153.722 44.168 154.01 43.656C154.314 43.144 154.466 42.528 154.466 41.808V40.92C154.466 40.216 154.314 39.624 154.01 39.144C153.706 38.664 153.306 38.296 152.81 38.04C152.314 37.784 151.778 37.656 151.202 37.656C150.562 37.656 149.986 37.824 149.474 38.16C148.978 38.48 148.586 38.928 148.298 39.504C148.01 40.064 147.866 40.72 147.866 41.472C147.866 42.24 148.01 42.904 148.298 43.464C148.586 44.024 148.986 44.456 149.498 44.76C150.01 45.064 150.586 45.216 151.226 45.216ZM166.157 48.408C164.637 48.408 163.469 47.92 162.653 46.944C161.837 45.952 161.429 44.464 161.429 42.48V34.848H165.269V42.672C165.269 43.376 165.469 43.936 165.869 44.352C166.269 44.768 166.805 44.976 167.477 44.976C168.165 44.976 168.725 44.76 169.157 44.328C169.589 43.896 169.805 43.312 169.805 42.576V34.848H173.645V48H170.597V42.456H170.861C170.861 43.784 170.685 44.896 170.333 45.792C169.997 46.672 169.493 47.328 168.821 47.76C168.149 48.192 167.317 48.408 166.325 48.408H166.157ZM183.09 48.456C181.954 48.456 180.962 48.272 180.114 47.904C179.282 47.52 178.586 47.008 178.026 46.368C177.466 45.728 177.05 45.008 176.778 44.208C176.506 43.392 176.37 42.552 176.37 41.688V41.232C176.37 40.336 176.514 39.48 176.802 38.664C177.09 37.832 177.514 37.096 178.074 36.456C178.634 35.816 179.33 35.312 180.162 34.944C181.01 34.576 181.978 34.392 183.066 34.392C184.25 34.392 185.298 34.624 186.21 35.088C187.122 35.536 187.85 36.168 188.394 36.984C188.938 37.8 189.242 38.736 189.306 39.792H185.538C185.474 39.2 185.234 38.704 184.818 38.304C184.418 37.888 183.834 37.68 183.066 37.68C182.426 37.68 181.89 37.84 181.458 38.16C181.042 38.48 180.73 38.92 180.522 39.48C180.314 40.04 180.21 40.704 180.21 41.472C180.21 42.176 180.306 42.816 180.498 43.392C180.69 43.952 180.994 44.392 181.41 44.712C181.842 45.016 182.402 45.168 183.09 45.168C183.602 45.168 184.034 45.08 184.386 44.904C184.754 44.712 185.042 44.456 185.25 44.136C185.474 43.8 185.61 43.416 185.658 42.984H189.402C189.354 44.072 189.05 45.032 188.49 45.864C187.93 46.68 187.186 47.32 186.258 47.784C185.33 48.232 184.274 48.456 183.09 48.456ZM197.833 48.168C196.505 48.168 195.433 48.008 194.617 47.688C193.801 47.352 193.201 46.8 192.817 46.032C192.449 45.248 192.265 44.192 192.265 42.864V31.296H195.841V43.008C195.841 43.632 196.001 44.112 196.321 44.448C196.657 44.768 197.129 44.928 197.737 44.928H199.681V48.168H197.833ZM190.273 37.656V34.848H199.681V37.656H190.273ZM207.162 48.408C205.29 48.408 203.826 48.024 202.77 47.256C201.714 46.488 201.154 45.408 201.09 44.016H204.498C204.562 44.432 204.81 44.808 205.242 45.144C205.69 45.464 206.354 45.624 207.234 45.624C207.906 45.624 208.458 45.512 208.89 45.288C209.338 45.048 209.562 44.712 209.562 44.28C209.562 43.896 209.394 43.592 209.058 43.368C208.722 43.128 208.122 42.96 207.258 42.864L206.226 42.768C204.642 42.608 203.45 42.168 202.65 41.448C201.866 40.728 201.474 39.808 201.474 38.688C201.474 37.76 201.706 36.984 202.17 36.36C202.634 35.736 203.274 35.264 204.09 34.944C204.922 34.624 205.866 34.464 206.922 34.464C208.618 34.464 209.986 34.84 211.026 35.592C212.066 36.328 212.61 37.4 212.658 38.808H209.25C209.186 38.376 208.962 38.016 208.578 37.728C208.194 37.424 207.626 37.272 206.874 37.272C206.282 37.272 205.81 37.384 205.458 37.608C205.106 37.832 204.93 38.136 204.93 38.52C204.93 38.888 205.082 39.168 205.386 39.36C205.69 39.552 206.186 39.688 206.874 39.768L207.906 39.864C209.522 40.04 210.778 40.488 211.674 41.208C212.57 41.928 213.018 42.896 213.018 44.112C213.018 44.992 212.778 45.76 212.298 46.416C211.818 47.056 211.138 47.552 210.258 47.904C209.378 48.24 208.346 48.408 207.162 48.408Z" fill="white"/>
<path d="M43 139.08V140C42.9988 142.156 42.3005 144.255 41.0093 145.982C39.7182 147.709 37.9033 148.972 35.8354 149.584C33.7674 150.195 31.5573 150.122 29.5345 149.375C27.5117 148.627 25.7847 147.246 24.611 145.437C23.4373 143.628 22.8798 141.488 23.0217 139.336C23.1636 137.185 23.9972 135.136 25.3983 133.497C26.7994 131.858 28.6928 130.715 30.7962 130.24C32.8996 129.765 35.1003 129.982 37.07 130.86" stroke="white" stroke-width="2" stroke-linecap="round" stroke-linejoin="round"/>
<path d="M43 132L33 142.01L30 139.01" stroke="white" stroke-width="2" stroke-linecap="round" stroke-linejoin="round"/>
<path d="M61.946 145V133.256H63.514V145H61.946ZM69.162 145L65.29 139.8H67.13L71.066 145H69.162ZM62.922 140.776V139.384H66.058C66.5487 139.384 66.97 139.283 67.322 139.08C67.674 138.877 67.946 138.6 68.138 138.248C68.33 137.885 68.426 137.475 68.426 137.016C68.426 136.557 68.33 136.152 68.138 135.8C67.946 135.437 67.674 135.155 67.322 134.952C66.97 134.739 66.5487 134.632 66.058 134.632H62.922V133.256H65.77C66.6233 133.256 67.37 133.384 68.01 133.64C68.65 133.896 69.146 134.291 69.498 134.824C69.85 135.357 70.026 136.045 70.026 136.888V137.144C70.026 137.987 69.8447 138.675 69.482 139.208C69.13 139.741 68.634 140.136 67.994 140.392C67.3647 140.648 66.6233 140.776 65.77 140.776H62.922ZM76.4009 145.288C75.6542 145.288 75.0089 145.16 74.4649 144.904C73.9209 144.648 73.4782 144.312 73.1369 143.896C72.7955 143.469 72.5395 142.995 72.3689 142.472C72.2089 141.949 72.1289 141.416 72.1289 140.872V140.584C72.1289 140.029 72.2089 139.491 72.3689 138.968C72.5395 138.445 72.7955 137.976 73.1369 137.56C73.4782 137.133 73.9102 136.797 74.4329 136.552C74.9662 136.296 75.5902 136.168 76.3049 136.168C77.2329 136.168 77.9955 136.371 78.5929 136.776C79.2009 137.171 79.6489 137.683 79.9369 138.312C80.2355 138.941 80.3849 139.613 80.3849 140.328V141.016H72.8009V139.864H79.2649L78.9129 140.488C78.9129 139.88 78.8169 139.357 78.6249 138.92C78.4329 138.472 78.1449 138.125 77.7609 137.88C77.3769 137.635 76.8915 137.512 76.3049 137.512C75.6969 137.512 75.1902 137.651 74.7849 137.928C74.3902 138.205 74.0915 138.584 73.8889 139.064C73.6969 139.544 73.6009 140.099 73.6009 140.728C73.6009 141.336 73.6969 141.885 73.8889 142.376C74.0915 142.856 74.4009 143.24 74.8169 143.528C75.2329 143.805 75.7609 143.944 76.4009 143.944C77.0729 143.944 77.6169 143.795 78.0329 143.496C78.4595 143.197 78.7155 142.851 78.8009 142.456H80.2409C80.1235 143.043 79.8889 143.549 79.5369 143.976C79.1849 144.403 78.7422 144.728 78.2089 144.952C77.6755 145.176 77.0729 145.288 76.4009 145.288ZM85.7977 148.328C85.4031 148.328 85.0031 148.312 84.5978 148.28C84.2031 148.248 83.8244 148.205 83.4618 148.152V146.856C83.8458 146.909 84.2458 146.952 84.6618 146.984C85.0884 147.027 85.4884 147.048 85.8618 147.048C86.6404 147.048 87.2591 146.941 87.7178 146.728C88.1871 146.525 88.5231 146.2 88.7258 145.752C88.9391 145.315 89.0458 144.749 89.0458 144.056V142.424L89.5578 141.208C89.5258 142.072 89.3444 142.792 89.0138 143.368C88.6831 143.933 88.2511 144.36 87.7178 144.648C87.1951 144.925 86.6138 145.064 85.9738 145.064C85.3764 145.064 84.8271 144.952 84.3258 144.728C83.8351 144.493 83.4084 144.173 83.0458 143.768C82.6938 143.363 82.4164 142.899 82.2138 142.376C82.0218 141.843 81.9258 141.283 81.9258 140.696V140.408C81.9258 139.811 82.0271 139.256 82.2298 138.744C82.4324 138.221 82.7151 137.768 83.0778 137.384C83.4404 137 83.8724 136.701 84.3738 136.488C84.8858 136.275 85.4458 136.168 86.0538 136.168C86.7684 136.168 87.3978 136.323 87.9418 136.632C88.4858 136.931 88.9124 137.373 89.2218 137.96C89.5418 138.536 89.7178 139.245 89.7498 140.088L89.3018 140.104V136.456H90.5178V143.992C90.5178 145.016 90.3578 145.843 90.0378 146.472C89.7284 147.112 89.2271 147.581 88.5338 147.88C87.8511 148.179 86.9391 148.328 85.7977 148.328ZM86.2618 143.656C86.7738 143.656 87.2378 143.544 87.6538 143.32C88.0804 143.096 88.4164 142.776 88.6618 142.36C88.9178 141.933 89.0458 141.427 89.0458 140.84V140.104C89.0458 139.528 88.9124 139.043 88.6458 138.648C88.3898 138.253 88.0538 137.955 87.6378 137.752C87.2218 137.549 86.7684 137.448 86.2778 137.448C85.7231 137.448 85.2324 137.576 84.8058 137.832C84.3791 138.088 84.0484 138.451 83.8138 138.92C83.5791 139.379 83.4618 139.923 83.4618 140.552C83.4618 141.181 83.5791 141.731 83.8138 142.2C84.0591 142.669 84.3898 143.032 84.8058 143.288C85.2324 143.533 85.7178 143.656 86.2618 143.656ZM93.7786 145V136.456H95.3146V145H93.7786ZM92.4666 137.672V136.456H95.3146V137.672H92.4666ZM94.2106 135.08C93.8693 135.08 93.6133 134.989 93.4426 134.808C93.2826 134.627 93.2026 134.397 93.2026 134.12C93.2026 133.843 93.2826 133.613 93.4426 133.432C93.6133 133.251 93.8693 133.16 94.2106 133.16C94.552 133.16 94.8026 133.251 94.9626 133.432C95.1333 133.613 95.2186 133.843 95.2186 134.12C95.2186 134.397 95.1333 134.627 94.9626 134.808C94.8026 134.989 94.552 135.08 94.2106 135.08ZM101.085 145.256C99.9645 145.256 99.0952 145.016 98.4765 144.536C97.8685 144.056 97.5538 143.4 97.5325 142.568H98.9725C98.9938 142.899 99.1592 143.213 99.4685 143.512C99.7885 143.8 100.327 143.944 101.085 143.944C101.767 143.944 102.29 143.811 102.653 143.544C103.015 143.267 103.197 142.931 103.197 142.536C103.197 142.184 103.063 141.912 102.797 141.72C102.53 141.517 102.098 141.384 101.501 141.32L100.573 141.224C99.7618 141.139 99.1005 140.899 98.5885 140.504C98.0765 140.099 97.8205 139.533 97.8205 138.808C97.8205 138.264 97.9592 137.8 98.2365 137.416C98.5138 137.021 98.8978 136.723 99.3885 136.52C99.8792 136.307 100.445 136.2 101.085 136.2C102.045 136.2 102.823 136.413 103.421 136.84C104.018 137.267 104.327 137.901 104.349 138.744H102.909C102.898 138.403 102.738 138.115 102.429 137.88C102.13 137.635 101.682 137.512 101.085 137.512C100.487 137.512 100.034 137.635 99.7245 137.88C99.4152 138.125 99.2605 138.435 99.2605 138.808C99.2605 139.128 99.3672 139.384 99.5805 139.576C99.8045 139.768 100.167 139.891 100.669 139.944L101.597 140.04C102.514 140.136 103.25 140.392 103.805 140.808C104.359 141.213 104.637 141.789 104.637 142.536C104.637 143.069 104.482 143.544 104.173 143.96C103.874 144.365 103.458 144.685 102.925 144.92C102.391 145.144 101.778 145.256 101.085 145.256ZM110.191 145.096C109.551 145.096 108.996 145.005 108.527 144.824C108.068 144.643 107.711 144.333 107.455 143.896C107.209 143.448 107.087 142.845 107.087 142.088V133.864H108.559V142.28C108.559 142.739 108.681 143.096 108.927 143.352C109.183 143.597 109.54 143.72 109.999 143.72H111.503V145.096H110.191ZM105.615 137.608V136.456H111.503V137.608H105.615ZM117.245 145.288C116.498 145.288 115.853 145.16 115.309 144.904C114.765 144.648 114.322 144.312 113.981 143.896C113.639 143.469 113.383 142.995 113.213 142.472C113.053 141.949 112.973 141.416 112.973 140.872V140.584C112.973 140.029 113.053 139.491 113.213 138.968C113.383 138.445 113.639 137.976 113.981 137.56C114.322 137.133 114.754 136.797 115.277 136.552C115.81 136.296 116.434 136.168 117.149 136.168C118.077 136.168 118.839 136.371 119.437 136.776C120.045 137.171 120.493 137.683 120.781 138.312C121.079 138.941 121.229 139.613 121.229 140.328V141.016H113.645V139.864H120.109L119.757 140.488C119.757 139.88 119.661 139.357 119.469 138.92C119.277 138.472 118.989 138.125 118.605 137.88C118.221 137.635 117.735 137.512 117.149 137.512C116.541 137.512 116.034 137.651 115.629 137.928C115.234 138.205 114.935 138.584 114.733 139.064C114.541 139.544 114.445 140.099 114.445 140.728C114.445 141.336 114.541 141.885 114.733 142.376C114.935 142.856 115.245 143.24 115.661 143.528C116.077 143.805 116.605 143.944 117.245 143.944C117.917 143.944 118.461 143.795 118.877 143.496C119.303 143.197 119.559 142.851 119.645 142.456H121.085C120.967 143.043 120.733 143.549 120.381 143.976C120.029 144.403 119.586 144.728 119.053 144.952C118.519 145.176 117.917 145.288 117.245 145.288ZM123.41 145V136.456H124.626V139.976H124.562C124.562 138.728 124.834 137.816 125.378 137.24C125.932 136.653 126.759 136.36 127.858 136.36H128.146V137.736H127.602C126.748 137.736 126.092 137.965 125.634 138.424C125.175 138.872 124.946 139.523 124.946 140.376V145H123.41ZM135.085 145.064V143.688H138.349C138.978 143.688 139.463 143.512 139.805 143.16C140.157 142.797 140.333 142.317 140.333 141.72C140.333 141.112 140.162 140.637 139.821 140.296C139.479 139.944 138.989 139.768 138.349 139.768H135.085V138.744H138.125C138.871 138.744 139.527 138.835 140.093 139.016C140.669 139.197 141.117 139.501 141.437 139.928C141.767 140.344 141.933 140.915 141.933 141.64V141.864C141.933 142.547 141.794 143.128 141.517 143.608C141.239 144.077 140.818 144.44 140.253 144.696C139.687 144.941 138.978 145.064 138.125 145.064H135.085ZM133.837 145.064V133.256H135.405V145.064H133.837ZM135.085 139.48V138.456H137.917C138.578 138.456 139.063 138.28 139.373 137.928C139.693 137.565 139.853 137.107 139.853 136.552C139.853 135.987 139.693 135.528 139.373 135.176C139.063 134.813 138.578 134.632 137.917 134.632H135.085V133.256H137.645C138.925 133.256 139.879 133.528 140.509 134.072C141.138 134.605 141.453 135.379 141.453 136.392V136.616C141.453 137.331 141.293 137.901 140.973 138.328C140.653 138.744 140.205 139.043 139.629 139.224C139.063 139.395 138.402 139.48 137.645 139.48H135.085ZM147.448 145.256C146.434 145.256 145.656 144.925 145.112 144.264C144.568 143.603 144.296 142.648 144.296 141.4V136.44H145.832V141.704C145.832 142.376 146.013 142.904 146.376 143.288C146.738 143.661 147.229 143.848 147.848 143.848C148.488 143.848 149.01 143.645 149.416 143.24C149.821 142.824 150.024 142.259 150.024 141.544V136.44H151.56V145H150.344V141.336H150.536C150.536 142.179 150.424 142.893 150.2 143.48C149.976 144.056 149.64 144.499 149.192 144.808C148.754 145.107 148.194 145.256 147.512 145.256H147.448ZM157.335 145.256C156.215 145.256 155.345 145.016 154.727 144.536C154.119 144.056 153.804 143.4 153.783 142.568H155.223C155.244 142.899 155.409 143.213 155.719 143.512C156.039 143.8 156.577 143.944 157.335 143.944C158.017 143.944 158.54 143.811 158.903 143.544C159.265 143.267 159.447 142.931 159.447 142.536C159.447 142.184 159.313 141.912 159.047 141.72C158.78 141.517 158.348 141.384 157.751 141.32L156.823 141.224C156.012 141.139 155.351 140.899 154.839 140.504C154.327 140.099 154.071 139.533 154.071 138.808C154.071 138.264 154.209 137.8 154.487 137.416C154.764 137.021 155.148 136.723 155.639 136.52C156.129 136.307 156.695 136.2 157.335 136.2C158.295 136.2 159.073 136.413 159.671 136.84C160.268 137.267 160.577 137.901 160.599 138.744H159.159C159.148 138.403 158.988 138.115 158.679 137.88C158.38 137.635 157.932 137.512 157.335 137.512C156.737 137.512 156.284 137.635 155.975 137.88C155.665 138.125 155.511 138.435 155.511 138.808C155.511 139.128 155.617 139.384 155.831 139.576C156.055 139.768 156.417 139.891 156.919 139.944L157.847 140.04C158.764 140.136 159.5 140.392 160.055 140.808C160.609 141.213 160.887 141.789 160.887 142.536C160.887 143.069 160.732 143.544 160.423 143.96C160.124 144.365 159.708 144.685 159.175 144.92C158.641 145.144 158.028 145.256 157.335 145.256ZM163.529 145V136.456H165.065V145H163.529ZM162.217 137.672V136.456H165.065V137.672H162.217ZM163.961 135.08C163.619 135.08 163.363 134.989 163.193 134.808C163.033 134.627 162.953 134.397 162.953 134.12C162.953 133.843 163.033 133.613 163.193 133.432C163.363 133.251 163.619 133.16 163.961 133.16C164.302 133.16 164.553 133.251 164.713 133.432C164.883 133.613 164.969 133.843 164.969 134.12C164.969 134.397 164.883 134.627 164.713 134.808C164.553 134.989 164.302 135.08 163.961 135.08ZM168.035 145V136.456H169.251V140.12H169.059C169.059 139.277 169.171 138.568 169.395 137.992C169.629 137.405 169.981 136.963 170.451 136.664C170.92 136.355 171.512 136.2 172.227 136.2H172.291C173.368 136.2 174.163 136.536 174.675 137.208C175.197 137.88 175.459 138.851 175.459 140.12V145H173.923V139.8C173.923 139.139 173.736 138.611 173.363 138.216C172.989 137.811 172.477 137.608 171.827 137.608C171.155 137.608 170.611 137.816 170.195 138.232C169.779 138.648 169.571 139.203 169.571 139.896V145H168.035ZM181.901 145.288C181.154 145.288 180.509 145.16 179.965 144.904C179.421 144.648 178.978 144.312 178.637 143.896C178.296 143.469 178.04 142.995 177.869 142.472C177.709 141.949 177.629 141.416 177.629 140.872V140.584C177.629 140.029 177.709 139.491 177.869 138.968C178.04 138.445 178.296 137.976 178.637 137.56C178.978 137.133 179.41 136.797 179.933 136.552C180.466 136.296 181.09 136.168 181.805 136.168C182.733 136.168 183.496 136.371 184.093 136.776C184.701 137.171 185.149 137.683 185.437 138.312C185.736 138.941 185.885 139.613 185.885 140.328V141.016H178.301V139.864H184.765L184.413 140.488C184.413 139.88 184.317 139.357 184.125 138.92C183.933 138.472 183.645 138.125 183.261 137.88C182.877 137.635 182.392 137.512 181.805 137.512C181.197 137.512 180.69 137.651 180.285 137.928C179.89 138.205 179.592 138.584 179.389 139.064C179.197 139.544 179.101 140.099 179.101 140.728C179.101 141.336 179.197 141.885 179.389 142.376C179.592 142.856 179.901 143.24 180.317 143.528C180.733 143.805 181.261 143.944 181.901 143.944C182.573 143.944 183.117 143.795 183.533 143.496C183.96 143.197 184.216 142.851 184.301 142.456H185.741C185.624 143.043 185.389 143.549 185.037 143.976C184.685 144.403 184.242 144.728 183.709 144.952C183.176 145.176 182.573 145.288 181.901 145.288ZM190.866 145.256C189.746 145.256 188.876 145.016 188.258 144.536C187.65 144.056 187.335 143.4 187.314 142.568H188.754C188.775 142.899 188.94 143.213 189.25 143.512C189.57 143.8 190.108 143.944 190.866 143.944C191.548 143.944 192.071 143.811 192.434 143.544C192.796 143.267 192.978 142.931 192.978 142.536C192.978 142.184 192.844 141.912 192.578 141.72C192.311 141.517 191.879 141.384 191.282 141.32L190.354 141.224C189.543 141.139 188.882 140.899 188.37 140.504C187.858 140.099 187.602 139.533 187.602 138.808C187.602 138.264 187.74 137.8 188.018 137.416C188.295 137.021 188.679 136.723 189.17 136.52C189.66 136.307 190.226 136.2 190.866 136.2C191.826 136.2 192.604 136.413 193.202 136.84C193.799 137.267 194.108 137.901 194.13 138.744H192.69C192.679 138.403 192.519 138.115 192.21 137.88C191.911 137.635 191.463 137.512 190.866 137.512C190.268 137.512 189.815 137.635 189.506 137.88C189.196 138.125 189.042 138.435 189.042 138.808C189.042 139.128 189.148 139.384 189.362 139.576C189.586 139.768 189.948 139.891 190.45 139.944L191.378 140.04C192.295 140.136 193.031 140.392 193.586 140.808C194.14 141.213 194.418 141.789 194.418 142.536C194.418 143.069 194.263 143.544 193.954 143.96C193.655 144.365 193.239 144.685 192.706 144.92C192.172 145.144 191.559 145.256 190.866 145.256ZM199.444 145.256C198.324 145.256 197.455 145.016 196.836 144.536C196.228 144.056 195.913 143.4 195.892 142.568H197.332C197.353 142.899 197.519 143.213 197.828 143.512C198.148 143.8 198.687 143.944 199.444 143.944C200.127 143.944 200.649 143.811 201.012 143.544C201.375 143.267 201.556 142.931 201.556 142.536C201.556 142.184 201.423 141.912 201.156 141.72C200.889 141.517 200.457 141.384 199.86 141.32L198.932 141.224C198.121 141.139 197.46 140.899 196.948 140.504C196.436 140.099 196.18 139.533 196.18 138.808C196.18 138.264 196.319 137.8 196.596 137.416C196.873 137.021 197.257 136.723 197.748 136.52C198.239 136.307 198.804 136.2 199.444 136.2C200.404 136.2 201.183 136.413 201.78 136.84C202.377 137.267 202.687 137.901 202.708 138.744H201.268C201.257 138.403 201.097 138.115 200.788 137.88C200.489 137.635 200.041 137.512 199.444 137.512C198.847 137.512 198.393 137.635 198.084 137.88C197.775 138.125 197.62 138.435 197.62 138.808C197.62 139.128 197.727 139.384 197.94 139.576C198.164 139.768 198.527 139.891 199.028 139.944L199.956 140.04C200.873 140.136 201.609 140.392 202.164 140.808C202.719 141.213 202.996 141.789 202.996 142.536C202.996 143.069 202.841 143.544 202.532 143.96C202.233 144.365 201.817 144.685 201.284 144.92C200.751 145.144 200.137 145.256 199.444 145.256Z" fill="white"/>
<path d="M43 99.08V100C42.9988 102.156 42.3005 104.255 41.0093 105.982C39.7182 107.709 37.9033 108.972 35.8354 109.584C33.7674 110.195 31.5573 110.122 29.5345 109.375C27.5117 108.627 25.7847 107.246 24.611 105.437C23.4373 103.628 22.8798 101.488 23.0217 99.3363C23.1636 97.1846 23.9972 95.1363 25.3983 93.4971C26.7994 91.8578 28.6928 90.7154 30.7962 90.2401C32.8996 89.7649 35.1003 89.9823 37.07 90.86" stroke="white" stroke-width="2" stroke-linecap="round" stroke-linejoin="round"/>
<path d="M43 92L33 102.01L30 99.01" stroke="white" stroke-width="2" stroke-linecap="round" stroke-linejoin="round"/>
<path d="M63.2799 100.936V99.56H65.8879C66.4426 99.56 66.9013 99.4533 67.2639 99.24C67.6266 99.016 67.8986 98.7173 68.0799 98.344C68.2719 97.9707 68.3679 97.5547 68.3679 97.096C68.3679 96.6267 68.2719 96.2053 68.0799 95.832C67.8986 95.4587 67.6266 95.1653 67.2639 94.952C66.9013 94.7387 66.4426 94.632 65.8879 94.632H63.2799V93.256H65.5999C66.5599 93.256 67.3599 93.4107 67.9999 93.72C68.6506 94.0187 69.1413 94.4453 69.4719 95C69.8026 95.5547 69.9679 96.2107 69.9679 96.968V97.224C69.9679 97.9707 69.8026 98.6267 69.4719 99.192C69.1413 99.7467 68.6506 100.179 67.9999 100.488C67.3599 100.787 66.5599 100.936 65.5999 100.936H63.2799ZM62.0319 105V93.256H63.5999V105H62.0319ZM72.0736 105V96.456H73.2896V99.976H73.2256C73.2256 98.728 73.4976 97.816 74.0416 97.24C74.5962 96.6533 75.4229 96.36 76.5216 96.36H76.8096V97.736H76.2656C75.4122 97.736 74.7562 97.9653 74.2976 98.424C73.8389 98.872 73.6096 99.5227 73.6096 100.376V105H72.0736ZM82.4783 105.288C81.7316 105.288 81.0756 105.16 80.5103 104.904C79.945 104.648 79.465 104.312 79.0703 103.896C78.6863 103.469 78.393 102.995 78.1903 102.472C77.9983 101.949 77.9023 101.416 77.9023 100.872V100.584C77.9023 100.04 78.0036 99.5067 78.2063 98.984C78.409 98.4507 78.7076 97.976 79.1023 97.56C79.497 97.1333 79.977 96.7973 80.5423 96.552C81.1076 96.296 81.753 96.168 82.4783 96.168C83.2036 96.168 83.849 96.296 84.4143 96.552C84.9796 96.7973 85.4596 97.1333 85.8543 97.56C86.249 97.976 86.5476 98.4507 86.7503 98.984C86.953 99.5067 87.0543 100.04 87.0543 100.584V100.872C87.0543 101.416 86.953 101.949 86.7503 102.472C86.5583 102.995 86.265 103.469 85.8703 103.896C85.4863 104.312 85.0116 104.648 84.4463 104.904C83.881 105.16 83.225 105.288 82.4783 105.288ZM82.4783 103.912C83.1183 103.912 83.6623 103.773 84.1103 103.496C84.569 103.208 84.9156 102.824 85.1503 102.344C85.3956 101.864 85.5183 101.325 85.5183 100.728C85.5183 100.12 85.3956 99.576 85.1503 99.096C84.905 98.616 84.553 98.2373 84.0943 97.96C83.6463 97.6827 83.1076 97.544 82.4783 97.544C81.8596 97.544 81.321 97.6827 80.8623 97.96C80.4036 98.2373 80.0516 98.616 79.8063 99.096C79.561 99.576 79.4383 100.12 79.4383 100.728C79.4383 101.325 79.5556 101.864 79.7903 102.344C80.0356 102.824 80.3823 103.208 80.8303 103.496C81.289 103.773 81.8383 103.912 82.4783 103.912ZM93.8668 105.288C93.1628 105.288 92.5335 105.133 91.9788 104.824C91.4348 104.515 91.0028 104.067 90.6828 103.48C90.3628 102.883 90.1868 102.168 90.1548 101.336H90.5708V105H89.3548V93.32H90.8908V99L90.3468 100.168C90.3895 99.24 90.5761 98.4827 90.9068 97.896C91.2375 97.3093 91.6695 96.8773 92.2028 96.6C92.7468 96.312 93.3441 96.168 93.9948 96.168C94.6028 96.168 95.1575 96.2853 95.6588 96.52C96.1601 96.744 96.5921 97.0587 96.9548 97.464C97.3175 97.8587 97.5948 98.3227 97.7868 98.856C97.9788 99.3787 98.0748 99.944 98.0748 100.552V100.84C98.0748 101.448 97.9735 102.019 97.7708 102.552C97.5788 103.085 97.2961 103.56 96.9228 103.976C96.5495 104.381 96.1015 104.701 95.5788 104.936C95.0668 105.171 94.4961 105.288 93.8668 105.288ZM93.6908 103.944C94.2668 103.944 94.7681 103.805 95.1948 103.528C95.6215 103.251 95.9521 102.872 96.1868 102.392C96.4215 101.901 96.5388 101.336 96.5388 100.696C96.5388 100.056 96.4161 99.496 96.1708 99.016C95.9361 98.536 95.6055 98.168 95.1788 97.912C94.7521 97.6453 94.2561 97.512 93.6908 97.512C93.1788 97.512 92.7041 97.6293 92.2668 97.864C91.8295 98.088 91.4775 98.4187 91.2108 98.856C90.9548 99.2827 90.8268 99.8 90.8268 100.408V101.144C90.8268 101.731 90.9601 102.232 91.2268 102.648C91.4935 103.064 91.8455 103.384 92.2828 103.608C92.7201 103.832 93.1895 103.944 93.6908 103.944ZM105.554 105V102.44H105.298V99.48C105.298 98.8933 105.143 98.4507 104.834 98.152C104.535 97.8533 104.093 97.704 103.506 97.704C103.175 97.704 102.834 97.7093 102.482 97.72C102.13 97.7307 101.794 97.7413 101.474 97.752C101.154 97.7627 100.877 97.7787 100.642 97.8V96.456C100.877 96.4347 101.122 96.4187 101.378 96.408C101.645 96.3867 101.917 96.376 102.194 96.376C102.471 96.3653 102.738 96.36 102.994 96.36C103.869 96.36 104.583 96.4667 105.138 96.68C105.693 96.8827 106.103 97.2187 106.37 97.688C106.637 98.1573 106.77 98.792 106.77 99.592V105H105.554ZM102.754 105.224C102.114 105.224 101.559 105.117 101.09 104.904C100.631 104.68 100.274 104.36 100.018 103.944C99.7727 103.528 99.6501 103.027 99.6501 102.44C99.6501 101.832 99.7834 101.325 100.05 100.92C100.327 100.515 100.727 100.211 101.25 100.008C101.773 99.7947 102.402 99.688 103.138 99.688H105.458V100.84H103.074C102.455 100.84 101.981 100.989 101.65 101.288C101.319 101.587 101.154 101.971 101.154 102.44C101.154 102.909 101.319 103.288 101.65 103.576C101.981 103.864 102.455 104.008 103.074 104.008C103.437 104.008 103.783 103.944 104.114 103.816C104.445 103.677 104.717 103.453 104.93 103.144C105.154 102.824 105.277 102.387 105.298 101.832L105.714 102.44C105.661 103.048 105.511 103.56 105.266 103.976C105.031 104.381 104.701 104.691 104.274 104.904C103.858 105.117 103.351 105.224 102.754 105.224ZM112.917 105.096C112.277 105.096 111.723 105.005 111.253 104.824C110.795 104.643 110.437 104.333 110.181 103.896C109.936 103.448 109.813 102.845 109.813 102.088V93.864H111.285V102.28C111.285 102.739 111.408 103.096 111.653 103.352C111.909 103.597 112.267 103.72 112.725 103.72H114.229V105.096H112.917ZM108.341 97.608V96.456H114.229V97.608H108.341ZM119.971 105.288C119.225 105.288 118.579 105.16 118.035 104.904C117.491 104.648 117.049 104.312 116.707 103.896C116.366 103.469 116.11 102.995 115.939 102.472C115.779 101.949 115.699 101.416 115.699 100.872V100.584C115.699 100.029 115.779 99.4907 115.939 98.968C116.11 98.4453 116.366 97.976 116.707 97.56C117.049 97.1333 117.481 96.7973 118.003 96.552C118.537 96.296 119.161 96.168 119.875 96.168C120.803 96.168 121.566 96.3707 122.163 96.776C122.771 97.1707 123.219 97.6827 123.507 98.312C123.806 98.9413 123.955 99.6133 123.955 100.328V101.016H116.371V99.864H122.835L122.483 100.488C122.483 99.88 122.387 99.3573 122.195 98.92C122.003 98.472 121.715 98.1253 121.331 97.88C120.947 97.6347 120.462 97.512 119.875 97.512C119.267 97.512 118.761 97.6507 118.355 97.928C117.961 98.2053 117.662 98.584 117.459 99.064C117.267 99.544 117.171 100.099 117.171 100.728C117.171 101.336 117.267 101.885 117.459 102.376C117.662 102.856 117.971 103.24 118.387 103.528C118.803 103.805 119.331 103.944 119.971 103.944C120.643 103.944 121.187 103.795 121.603 103.496C122.03 103.197 122.286 102.851 122.371 102.456H123.811C123.694 103.043 123.459 103.549 123.107 103.976C122.755 104.403 122.313 104.728 121.779 104.952C121.246 105.176 120.643 105.288 119.971 105.288Z" fill="white"/>
<path d="M43 179.08V180C42.9988 182.156 42.3005 184.255 41.0093 185.982C39.7182 187.709 37.9033 188.972 35.8354 189.584C33.7674 190.195 31.5573 190.122 29.5345 189.375C27.5117 188.627 25.7847 187.246 24.611 185.437C23.4373 183.628 22.8798 181.488 23.0217 179.336C23.1636 177.185 23.9972 175.136 25.3983 173.497C26.7994 171.858 28.6928 170.715 30.7962 170.24C32.8996 169.765 35.1003 169.982 37.07 170.86" stroke="white" stroke-width="2" stroke-linecap="round" stroke-linejoin="round"/>
<path d="M43 172L33 182.01L30 179.01" stroke="white" stroke-width="2" stroke-linecap="round" stroke-linejoin="round"/>
<path d="M63.2565 180.936V179.56H65.8645C66.4192 179.56 66.8778 179.453 67.2405 179.24C67.6032 179.016 67.8752 178.717 68.0565 178.344C68.2485 177.971 68.3445 177.555 68.3445 177.096C68.3445 176.627 68.2485 176.205 68.0565 175.832C67.8752 175.459 67.6032 175.165 67.2405 174.952C66.8778 174.739 66.4192 174.632 65.8645 174.632H63.2565V173.256H65.5765C66.5365 173.256 67.3365 173.411 67.9765 173.72C68.6272 174.019 69.1178 174.445 69.4485 175C69.7792 175.555 69.9445 176.211 69.9445 176.968V177.224C69.9445 177.971 69.7792 178.627 69.4485 179.192C69.1178 179.747 68.6272 180.179 67.9765 180.488C67.3365 180.787 66.5365 180.936 65.5765 180.936H63.2565ZM62.0085 185V173.256H63.5765V185H62.0085ZM72.0501 185V176.456H73.2661V179.976H73.2021C73.2021 178.728 73.4741 177.816 74.0181 177.24C74.5728 176.653 75.3995 176.36 76.4981 176.36H76.7861V177.736H76.2421C75.3888 177.736 74.7328 177.965 74.2741 178.424C73.8155 178.872 73.5861 179.523 73.5861 180.376V185H72.0501ZM82.4549 185.288C81.7082 185.288 81.0522 185.16 80.4869 184.904C79.9215 184.648 79.4415 184.312 79.0469 183.896C78.6629 183.469 78.3695 182.995 78.1669 182.472C77.9749 181.949 77.8789 181.416 77.8789 180.872V180.584C77.8789 180.04 77.9802 179.507 78.1829 178.984C78.3855 178.451 78.6842 177.976 79.0789 177.56C79.4735 177.133 79.9535 176.797 80.5189 176.552C81.0842 176.296 81.7295 176.168 82.4549 176.168C83.1802 176.168 83.8255 176.296 84.3909 176.552C84.9562 176.797 85.4362 177.133 85.8309 177.56C86.2255 177.976 86.5242 178.451 86.7269 178.984C86.9295 179.507 87.0309 180.04 87.0309 180.584V180.872C87.0309 181.416 86.9295 181.949 86.7269 182.472C86.5349 182.995 86.2415 183.469 85.8469 183.896C85.4629 184.312 84.9882 184.648 84.4229 184.904C83.8575 185.16 83.2015 185.288 82.4549 185.288ZM82.4549 183.912C83.0949 183.912 83.6389 183.773 84.0869 183.496C84.5455 183.208 84.8922 182.824 85.1269 182.344C85.3722 181.864 85.4949 181.325 85.4949 180.728C85.4949 180.12 85.3722 179.576 85.1269 179.096C84.8815 178.616 84.5295 178.237 84.0709 177.96C83.6229 177.683 83.0842 177.544 82.4549 177.544C81.8362 177.544 81.2975 177.683 80.8389 177.96C80.3802 178.237 80.0282 178.616 79.7829 179.096C79.5375 179.576 79.4149 180.12 79.4149 180.728C79.4149 181.325 79.5322 181.864 79.7669 182.344C80.0122 182.824 80.3589 183.208 80.8069 183.496C81.2655 183.773 81.8149 183.912 82.4549 183.912ZM89.3314 188.2V176.456H90.5474V180.152L90.2594 180.12C90.3127 179.203 90.5047 178.456 90.8354 177.88C91.1767 177.293 91.6194 176.861 92.1634 176.584C92.7074 176.307 93.2994 176.168 93.9394 176.168C94.558 176.168 95.118 176.285 95.6194 176.52C96.1314 176.755 96.5687 177.075 96.9314 177.48C97.294 177.885 97.5714 178.355 97.7634 178.888C97.9554 179.421 98.0514 179.987 98.0514 180.584V180.872C98.0514 181.469 97.95 182.035 97.7474 182.568C97.5447 183.101 97.2567 183.571 96.8834 183.976C96.5207 184.381 96.0834 184.701 95.5714 184.936C95.07 185.171 94.5154 185.288 93.9074 185.288C93.2994 185.288 92.718 185.155 92.1634 184.888C91.6087 184.621 91.15 184.189 90.7874 183.592C90.4247 182.995 90.2167 182.211 90.1634 181.24L90.8674 182.52V188.2H89.3314ZM93.6674 183.944C94.2434 183.944 94.7447 183.811 95.1714 183.544C95.598 183.267 95.9287 182.888 96.1634 182.408C96.398 181.917 96.5154 181.357 96.5154 180.728C96.5154 180.088 96.398 179.528 96.1634 179.048C95.9287 178.568 95.598 178.195 95.1714 177.928C94.7447 177.651 94.2434 177.512 93.6674 177.512C93.1554 177.512 92.6807 177.629 92.2434 177.864C91.806 178.088 91.454 178.419 91.1874 178.856C90.9314 179.283 90.8034 179.8 90.8034 180.408V181.144C90.8034 181.731 90.9367 182.232 91.2034 182.648C91.47 183.064 91.822 183.384 92.2594 183.608C92.6967 183.832 93.166 183.944 93.6674 183.944ZM103.691 185.096C103.051 185.096 102.496 185.005 102.027 184.824C101.568 184.643 101.211 184.333 100.955 183.896C100.709 183.448 100.587 182.845 100.587 182.088V173.864H102.059V182.28C102.059 182.739 102.181 183.096 102.427 183.352C102.683 183.597 103.04 183.72 103.499 183.72H105.003V185.096H103.691ZM99.1146 177.608V176.456H105.003V177.608H99.1146ZM106.599 188.328V186.952H107.831C108.194 186.952 108.498 186.904 108.743 186.808C108.999 186.723 109.207 186.573 109.367 186.36C109.538 186.147 109.676 185.864 109.783 185.512L112.471 176.456H113.975L111.127 185.912C110.956 186.477 110.716 186.936 110.407 187.288C110.098 187.651 109.719 187.912 109.271 188.072C108.834 188.243 108.322 188.328 107.735 188.328H106.599ZM109.207 184.808V183.528H111.063V184.808H109.207ZM109.047 184.808L105.991 176.456H107.559L110.487 184.808H109.047ZM115.925 188.2V176.456H117.141V180.152L116.853 180.12C116.906 179.203 117.098 178.456 117.429 177.88C117.77 177.293 118.213 176.861 118.757 176.584C119.301 176.307 119.893 176.168 120.533 176.168C121.152 176.168 121.712 176.285 122.213 176.52C122.725 176.755 123.162 177.075 123.525 177.48C123.888 177.885 124.165 178.355 124.357 178.888C124.549 179.421 124.645 179.987 124.645 180.584V180.872C124.645 181.469 124.544 182.035 124.341 182.568C124.138 183.101 123.85 183.571 123.477 183.976C123.114 184.381 122.677 184.701 122.165 184.936C121.664 185.171 121.109 185.288 120.501 185.288C119.893 185.288 119.312 185.155 118.757 184.888C118.202 184.621 117.744 184.189 117.381 183.592C117.018 182.995 116.81 182.211 116.757 181.24L117.461 182.52V188.2H115.925ZM120.261 183.944C120.837 183.944 121.338 183.811 121.765 183.544C122.192 183.267 122.522 182.888 122.757 182.408C122.992 181.917 123.109 181.357 123.109 180.728C123.109 180.088 122.992 179.528 122.757 179.048C122.522 178.568 122.192 178.195 121.765 177.928C121.338 177.651 120.837 177.512 120.261 177.512C119.749 177.512 119.274 177.629 118.837 177.864C118.4 178.088 118.048 178.419 117.781 178.856C117.525 179.283 117.397 179.8 117.397 180.408V181.144C117.397 181.731 117.53 182.232 117.797 182.648C118.064 183.064 118.416 183.384 118.853 183.608C119.29 183.832 119.76 183.944 120.261 183.944ZM127.052 185V173.32H128.588V185H127.052ZM125.868 174.536V173.32H128.588V174.536H125.868ZM134.495 185.256C133.481 185.256 132.703 184.925 132.159 184.264C131.615 183.603 131.343 182.648 131.343 181.4V176.44H132.879V181.704C132.879 182.376 133.06 182.904 133.423 183.288C133.785 183.661 134.276 183.848 134.895 183.848C135.535 183.848 136.057 183.645 136.463 183.24C136.868 182.824 137.071 182.259 137.071 181.544V176.44H138.607V185H137.391V181.336H137.583C137.583 182.179 137.471 182.893 137.247 183.48C137.023 184.056 136.687 184.499 136.239 184.808C135.801 185.107 135.241 185.256 134.559 185.256H134.495ZM144.381 185.256C143.261 185.256 142.392 185.016 141.773 184.536C141.165 184.056 140.851 183.4 140.829 182.568H142.269C142.291 182.899 142.456 183.213 142.765 183.512C143.085 183.8 143.624 183.944 144.381 183.944C145.064 183.944 145.587 183.811 145.949 183.544C146.312 183.267 146.493 182.931 146.493 182.536C146.493 182.184 146.36 181.912 146.093 181.72C145.827 181.517 145.395 181.384 144.797 181.32L143.869 181.224C143.059 181.139 142.397 180.899 141.885 180.504C141.373 180.099 141.117 179.533 141.117 178.808C141.117 178.264 141.256 177.8 141.533 177.416C141.811 177.021 142.195 176.723 142.685 176.52C143.176 176.307 143.741 176.2 144.381 176.2C145.341 176.2 146.12 176.413 146.717 176.84C147.315 177.267 147.624 177.901 147.645 178.744H146.205C146.195 178.403 146.035 178.115 145.725 177.88C145.427 177.635 144.979 177.512 144.381 177.512C143.784 177.512 143.331 177.635 143.021 177.88C142.712 178.125 142.557 178.435 142.557 178.808C142.557 179.128 142.664 179.384 142.877 179.576C143.101 179.768 143.464 179.891 143.965 179.944L144.893 180.04C145.811 180.136 146.547 180.392 147.101 180.808C147.656 181.213 147.933 181.789 147.933 182.536C147.933 183.069 147.779 183.544 147.469 183.96C147.171 184.365 146.755 184.685 146.221 184.92C145.688 185.144 145.075 185.256 144.381 185.256Z" fill="white"/>
<path d="M43 219.08V220C42.9988 222.156 42.3005 224.255 41.0093 225.982C39.7182 227.709 37.9033 228.972 35.8354 229.584C33.7674 230.195 31.5573 230.122 29.5345 229.375C27.5117 228.627 25.7847 227.246 24.611 225.437C23.4373 223.628 22.8798 221.488 23.0217 219.336C23.1636 217.185 23.9972 215.136 25.3983 213.497C26.7994 211.858 28.6928 210.715 30.7962 210.24C32.8996 209.765 35.1003 209.982 37.07 210.86" stroke="white" stroke-width="2" stroke-linecap="round" stroke-linejoin="round"/>
<path d="M43 212L33 222.01L30 219.01" stroke="white" stroke-width="2" stroke-linecap="round" stroke-linejoin="round"/>
<path d="M66.8383 225.288C65.7716 225.288 64.8596 225.101 64.1023 224.728C63.3556 224.355 62.753 223.869 62.2943 223.272C61.8356 222.675 61.4996 222.029 61.2863 221.336C61.073 220.632 60.9663 219.955 60.9663 219.304V218.952C60.9663 218.248 61.073 217.544 61.2863 216.84C61.5103 216.136 61.8516 215.496 62.3103 214.92C62.769 214.344 63.3663 213.88 64.1023 213.528C64.8383 213.176 65.7183 213 66.7423 213C67.7876 213 68.6836 213.181 69.4303 213.544C70.177 213.907 70.769 214.413 71.2063 215.064C71.6436 215.715 71.9103 216.483 72.0063 217.368H70.4063C70.321 216.707 70.1076 216.163 69.7663 215.736C69.425 215.299 68.993 214.973 68.4703 214.76C67.9583 214.547 67.3823 214.44 66.7423 214.44C66.049 214.44 65.441 214.563 64.9183 214.808C64.3956 215.043 63.9583 215.379 63.6063 215.816C63.265 216.243 63.0036 216.739 62.8223 217.304C62.6516 217.869 62.5663 218.483 62.5663 219.144C62.5663 219.773 62.6516 220.371 62.8223 220.936C63.0036 221.501 63.2703 222.003 63.6223 222.44C63.985 222.877 64.433 223.224 64.9663 223.48C65.4996 223.725 66.1236 223.848 66.8383 223.848C67.841 223.848 68.6836 223.597 69.3663 223.096C70.049 222.595 70.465 221.869 70.6143 220.92H72.2143C72.1076 221.72 71.8356 222.451 71.3983 223.112C70.9716 223.773 70.3743 224.301 69.6063 224.696C68.849 225.091 67.9263 225.288 66.8383 225.288ZM78.1971 225.288C77.4504 225.288 76.7944 225.16 76.2291 224.904C75.6637 224.648 75.1837 224.312 74.7891 223.896C74.4051 223.469 74.1117 222.995 73.9091 222.472C73.7171 221.949 73.6211 221.416 73.6211 220.872V220.584C73.6211 220.04 73.7224 219.507 73.9251 218.984C74.1277 218.451 74.4264 217.976 74.8211 217.56C75.2157 217.133 75.6957 216.797 76.2611 216.552C76.8264 216.296 77.4717 216.168 78.1971 216.168C78.9224 216.168 79.5677 216.296 80.1331 216.552C80.6984 216.797 81.1784 217.133 81.5731 217.56C81.9677 217.976 82.2664 218.451 82.4691 218.984C82.6717 219.507 82.7731 220.04 82.7731 220.584V220.872C82.7731 221.416 82.6717 221.949 82.4691 222.472C82.2771 222.995 81.9837 223.469 81.5891 223.896C81.2051 224.312 80.7304 224.648 80.1651 224.904C79.5997 225.16 78.9437 225.288 78.1971 225.288ZM78.1971 223.912C78.8371 223.912 79.3811 223.773 79.8291 223.496C80.2877 223.208 80.6344 222.824 80.8691 222.344C81.1144 221.864 81.2371 221.325 81.2371 220.728C81.2371 220.12 81.1144 219.576 80.8691 219.096C80.6237 218.616 80.2717 218.237 79.8131 217.96C79.3651 217.683 78.8264 217.544 78.1971 217.544C77.5784 217.544 77.0397 217.683 76.5811 217.96C76.1224 218.237 75.7704 218.616 75.5251 219.096C75.2797 219.576 75.1571 220.12 75.1571 220.728C75.1571 221.325 75.2744 221.864 75.5091 222.344C75.7544 222.824 76.1011 223.208 76.5491 223.496C77.0077 223.773 77.5571 223.912 78.1971 223.912ZM85.0736 225V216.456H86.2896V220.12H86.0976C86.0976 219.288 86.2042 218.584 86.4176 218.008C86.6416 217.421 86.9722 216.973 87.4096 216.664C87.8469 216.355 88.4016 216.2 89.0736 216.2H89.1376C89.8096 216.2 90.3642 216.355 90.8016 216.664C91.2496 216.973 91.5802 217.421 91.7936 218.008C92.0069 218.584 92.1136 219.288 92.1136 220.12H91.6656C91.6656 219.288 91.7776 218.584 92.0016 218.008C92.2256 217.421 92.5562 216.973 92.9936 216.664C93.4416 216.355 94.0016 216.2 94.6736 216.2H94.7376C95.4096 216.2 95.9696 216.355 96.4176 216.664C96.8656 216.973 97.1962 217.421 97.4096 218.008C97.6336 218.584 97.7456 219.288 97.7456 220.12V225H96.2096V219.784C96.2096 219.091 96.0389 218.557 95.6976 218.184C95.3562 217.8 94.8816 217.608 94.2736 217.608C93.6442 217.608 93.1376 217.811 92.7536 218.216C92.3696 218.611 92.1776 219.165 92.1776 219.88V225H90.6416V219.784C90.6416 219.091 90.4709 218.557 90.1296 218.184C89.7882 217.8 89.3136 217.608 88.7056 217.608C88.0762 217.608 87.5696 217.811 87.1856 218.216C86.8016 218.611 86.6096 219.165 86.6096 219.88V225H85.0736ZM100.558 228.2V216.456H101.774V220.152L101.486 220.12C101.539 219.203 101.731 218.456 102.062 217.88C102.403 217.293 102.846 216.861 103.39 216.584C103.934 216.307 104.526 216.168 105.166 216.168C105.785 216.168 106.345 216.285 106.846 216.52C107.358 216.755 107.795 217.075 108.158 217.48C108.521 217.885 108.798 218.355 108.99 218.888C109.182 219.421 109.278 219.987 109.278 220.584V220.872C109.278 221.469 109.177 222.035 108.974 222.568C108.771 223.101 108.483 223.571 108.11 223.976C107.747 224.381 107.31 224.701 106.798 224.936C106.297 225.171 105.742 225.288 105.134 225.288C104.526 225.288 103.945 225.155 103.39 224.888C102.835 224.621 102.377 224.189 102.014 223.592C101.651 222.995 101.443 222.211 101.39 221.24L102.094 222.52V228.2H100.558ZM104.894 223.944C105.47 223.944 105.971 223.811 106.398 223.544C106.825 223.267 107.155 222.888 107.39 222.408C107.625 221.917 107.742 221.357 107.742 220.728C107.742 220.088 107.625 219.528 107.39 219.048C107.155 218.568 106.825 218.195 106.398 217.928C105.971 217.651 105.47 217.512 104.894 217.512C104.382 217.512 103.907 217.629 103.47 217.864C103.033 218.088 102.681 218.419 102.414 218.856C102.158 219.283 102.03 219.8 102.03 220.408V221.144C102.03 221.731 102.163 222.232 102.43 222.648C102.697 223.064 103.049 223.384 103.486 223.608C103.923 223.832 104.393 223.944 104.894 223.944ZM116.757 225V222.44H116.501V219.48C116.501 218.893 116.347 218.451 116.037 218.152C115.739 217.853 115.296 217.704 114.709 217.704C114.379 217.704 114.037 217.709 113.685 217.72C113.333 217.731 112.997 217.741 112.677 217.752C112.357 217.763 112.08 217.779 111.845 217.8V216.456C112.08 216.435 112.325 216.419 112.581 216.408C112.848 216.387 113.12 216.376 113.397 216.376C113.675 216.365 113.941 216.36 114.197 216.36C115.072 216.36 115.787 216.467 116.341 216.68C116.896 216.883 117.307 217.219 117.573 217.688C117.84 218.157 117.973 218.792 117.973 219.592V225H116.757ZM113.957 225.224C113.317 225.224 112.763 225.117 112.293 224.904C111.835 224.68 111.477 224.36 111.221 223.944C110.976 223.528 110.853 223.027 110.853 222.44C110.853 221.832 110.987 221.325 111.253 220.92C111.531 220.515 111.931 220.211 112.453 220.008C112.976 219.795 113.605 219.688 114.341 219.688H116.661V220.84H114.277C113.659 220.84 113.184 220.989 112.853 221.288C112.523 221.587 112.357 221.971 112.357 222.44C112.357 222.909 112.523 223.288 112.853 223.576C113.184 223.864 113.659 224.008 114.277 224.008C114.64 224.008 114.987 223.944 115.317 223.816C115.648 223.677 115.92 223.453 116.133 223.144C116.357 222.824 116.48 222.387 116.501 221.832L116.917 222.44C116.864 223.048 116.715 223.56 116.469 223.976C116.235 224.381 115.904 224.691 115.477 224.904C115.061 225.117 114.555 225.224 113.957 225.224ZM120.792 225V216.456H122.008V220.12H121.816C121.816 219.277 121.928 218.568 122.152 217.992C122.387 217.405 122.739 216.963 123.208 216.664C123.678 216.355 124.27 216.2 124.984 216.2H125.048C126.126 216.2 126.92 216.536 127.432 217.208C127.955 217.88 128.216 218.851 128.216 220.12V225H126.68V219.8C126.68 219.139 126.494 218.611 126.12 218.216C125.747 217.811 125.235 217.608 124.584 217.608C123.912 217.608 123.368 217.816 122.952 218.232C122.536 218.648 122.328 219.203 122.328 219.896V225H120.792ZM130.388 228.328V226.952H131.62C131.983 226.952 132.287 226.904 132.532 226.808C132.788 226.723 132.996 226.573 133.156 226.36C133.327 226.147 133.466 225.864 133.572 225.512L136.26 216.456H137.764L134.916 225.912C134.746 226.477 134.506 226.936 134.196 227.288C133.887 227.651 133.508 227.912 133.06 228.072C132.623 228.243 132.111 228.328 131.524 228.328H130.388ZM132.996 224.808V223.528H134.852V224.808H132.996ZM132.836 224.808L129.78 216.456H131.348L134.276 224.808H132.836ZM147.371 225.288C146.4 225.288 145.573 225.128 144.891 224.808C144.208 224.488 143.685 224.045 143.323 223.48C142.96 222.915 142.779 222.275 142.779 221.56H144.347C144.347 221.912 144.437 222.264 144.619 222.616C144.811 222.968 145.125 223.261 145.563 223.496C146.011 223.731 146.613 223.848 147.371 223.848C148.075 223.848 148.651 223.747 149.099 223.544C149.547 223.331 149.877 223.059 150.091 222.728C150.304 222.387 150.411 222.019 150.411 221.624C150.411 221.144 150.203 220.749 149.787 220.44C149.371 220.12 148.763 219.923 147.963 219.848L146.667 219.736C145.632 219.651 144.805 219.331 144.187 218.776C143.568 218.221 143.259 217.491 143.259 216.584C143.259 215.869 143.429 215.245 143.771 214.712C144.123 214.179 144.608 213.763 145.227 213.464C145.845 213.155 146.565 213 147.387 213C148.197 213 148.912 213.149 149.531 213.448C150.149 213.747 150.629 214.168 150.971 214.712C151.323 215.245 151.499 215.885 151.499 216.632H149.931C149.931 216.259 149.84 215.907 149.659 215.576C149.488 215.245 149.216 214.973 148.843 214.76C148.469 214.547 147.984 214.44 147.387 214.44C146.811 214.44 146.331 214.541 145.947 214.744C145.573 214.947 145.291 215.213 145.099 215.544C144.917 215.864 144.827 216.211 144.827 216.584C144.827 217.011 144.992 217.389 145.323 217.72C145.653 218.051 146.144 218.243 146.795 218.296L148.091 218.408C148.891 218.472 149.579 218.643 150.155 218.92C150.741 219.187 151.189 219.549 151.499 220.008C151.819 220.456 151.979 220.995 151.979 221.624C151.979 222.339 151.787 222.973 151.403 223.528C151.019 224.083 150.48 224.515 149.787 224.824C149.093 225.133 148.288 225.288 147.371 225.288ZM158.018 225.288C157.271 225.288 156.626 225.16 156.082 224.904C155.538 224.648 155.095 224.312 154.754 223.896C154.413 223.469 154.157 222.995 153.986 222.472C153.826 221.949 153.746 221.416 153.746 220.872V220.584C153.746 220.029 153.826 219.491 153.986 218.968C154.157 218.445 154.413 217.976 154.754 217.56C155.095 217.133 155.527 216.797 156.05 216.552C156.583 216.296 157.207 216.168 157.922 216.168C158.85 216.168 159.613 216.371 160.21 216.776C160.818 217.171 161.266 217.683 161.554 218.312C161.853 218.941 162.002 219.613 162.002 220.328V221.016H154.418V219.864H160.882L160.53 220.488C160.53 219.88 160.434 219.357 160.242 218.92C160.05 218.472 159.762 218.125 159.378 217.88C158.994 217.635 158.509 217.512 157.922 217.512C157.314 217.512 156.807 217.651 156.402 217.928C156.007 218.205 155.709 218.584 155.506 219.064C155.314 219.544 155.218 220.099 155.218 220.728C155.218 221.336 155.314 221.885 155.506 222.376C155.709 222.856 156.018 223.24 156.434 223.528C156.85 223.805 157.378 223.944 158.018 223.944C158.69 223.944 159.234 223.795 159.65 223.496C160.077 223.197 160.333 222.851 160.418 222.456H161.858C161.741 223.043 161.506 223.549 161.154 223.976C160.802 224.403 160.359 224.728 159.826 224.952C159.293 225.176 158.69 225.288 158.018 225.288ZM167.847 225.288C167.111 225.288 166.471 225.16 165.927 224.904C165.394 224.648 164.951 224.307 164.599 223.88C164.247 223.443 163.98 222.963 163.799 222.44C163.628 221.917 163.543 221.395 163.543 220.872V220.584C163.543 220.04 163.628 219.507 163.799 218.984C163.98 218.461 164.247 217.992 164.599 217.576C164.962 217.149 165.41 216.808 165.943 216.552C166.476 216.296 167.1 216.168 167.815 216.168C168.53 216.168 169.17 216.301 169.735 216.568C170.311 216.835 170.77 217.213 171.111 217.704C171.463 218.184 171.66 218.755 171.703 219.416H170.231C170.156 218.883 169.911 218.44 169.495 218.088C169.079 217.725 168.519 217.544 167.815 217.544C167.207 217.544 166.7 217.683 166.295 217.96C165.89 218.237 165.586 218.616 165.383 219.096C165.18 219.576 165.079 220.12 165.079 220.728C165.079 221.315 165.18 221.853 165.383 222.344C165.586 222.824 165.89 223.208 166.295 223.496C166.711 223.773 167.228 223.912 167.847 223.912C168.327 223.912 168.743 223.827 169.095 223.656C169.447 223.485 169.73 223.256 169.943 222.968C170.156 222.68 170.284 222.355 170.327 221.992H171.799C171.767 222.664 171.57 223.245 171.207 223.736C170.855 224.227 170.386 224.611 169.799 224.888C169.223 225.155 168.572 225.288 167.847 225.288ZM173.886 225V216.456H175.102V219.976H175.038C175.038 218.728 175.31 217.816 175.854 217.24C176.409 216.653 177.235 216.36 178.334 216.36H178.622V217.736H178.078C177.225 217.736 176.569 217.965 176.11 218.424C175.651 218.872 175.422 219.523 175.422 220.376V225H173.886ZM183.987 225.288C183.24 225.288 182.595 225.16 182.051 224.904C181.507 224.648 181.064 224.312 180.723 223.896C180.381 223.469 180.125 222.995 179.955 222.472C179.795 221.949 179.715 221.416 179.715 220.872V220.584C179.715 220.029 179.795 219.491 179.955 218.968C180.125 218.445 180.381 217.976 180.723 217.56C181.064 217.133 181.496 216.797 182.019 216.552C182.552 216.296 183.176 216.168 183.891 216.168C184.819 216.168 185.581 216.371 186.179 216.776C186.787 217.171 187.235 217.683 187.523 218.312C187.821 218.941 187.971 219.613 187.971 220.328V221.016H180.387V219.864H186.851L186.499 220.488C186.499 219.88 186.403 219.357 186.211 218.92C186.019 218.472 185.731 218.125 185.347 217.88C184.963 217.635 184.477 217.512 183.891 217.512C183.283 217.512 182.776 217.651 182.371 217.928C181.976 218.205 181.677 218.584 181.475 219.064C181.283 219.544 181.187 220.099 181.187 220.728C181.187 221.336 181.283 221.885 181.475 222.376C181.677 222.856 181.987 223.24 182.403 223.528C182.819 223.805 183.347 223.944 183.987 223.944C184.659 223.944 185.203 223.795 185.619 223.496C186.045 223.197 186.301 222.851 186.387 222.456H187.827C187.709 223.043 187.475 223.549 187.123 223.976C186.771 224.403 186.328 224.728 185.795 224.952C185.261 225.176 184.659 225.288 183.987 225.288ZM193.48 225.096C192.84 225.096 192.285 225.005 191.816 224.824C191.357 224.643 191 224.333 190.744 223.896C190.498 223.448 190.376 222.845 190.376 222.088V213.864H191.848V222.28C191.848 222.739 191.97 223.096 192.216 223.352C192.472 223.597 192.829 223.72 193.288 223.72H194.792V225.096H193.48ZM188.904 217.608V216.456H194.792V217.608H188.904ZM202.101 225V222.44H201.845V219.48C201.845 218.893 201.69 218.451 201.381 218.152C201.082 217.853 200.64 217.704 200.053 217.704C199.722 217.704 199.381 217.709 199.029 217.72C198.677 217.731 198.341 217.741 198.021 217.752C197.701 217.763 197.424 217.779 197.189 217.8V216.456C197.424 216.435 197.669 216.419 197.925 216.408C198.192 216.387 198.464 216.376 198.741 216.376C199.018 216.365 199.285 216.36 199.541 216.36C200.416 216.36 201.13 216.467 201.685 216.68C202.24 216.883 202.65 217.219 202.917 217.688C203.184 218.157 203.317 218.792 203.317 219.592V225H202.101ZM199.301 225.224C198.661 225.224 198.106 225.117 197.637 224.904C197.178 224.68 196.821 224.36 196.565 223.944C196.32 223.528 196.197 223.027 196.197 222.44C196.197 221.832 196.33 221.325 196.597 220.92C196.874 220.515 197.274 220.211 197.797 220.008C198.32 219.795 198.949 219.688 199.685 219.688H202.005V220.84H199.621C199.002 220.84 198.528 220.989 198.197 221.288C197.866 221.587 197.701 221.971 197.701 222.44C197.701 222.909 197.866 223.288 198.197 223.576C198.528 223.864 199.002 224.008 199.621 224.008C199.984 224.008 200.33 223.944 200.661 223.816C200.992 223.677 201.264 223.453 201.477 223.144C201.701 222.824 201.824 222.387 201.845 221.832L202.261 222.44C202.208 223.048 202.058 223.56 201.813 223.976C201.578 224.381 201.248 224.691 200.821 224.904C200.405 225.117 199.898 225.224 199.301 225.224ZM206.136 225V216.456H207.352V219.976H207.288C207.288 218.728 207.56 217.816 208.104 217.24C208.659 216.653 209.485 216.36 210.584 216.36H210.872V217.736H210.328C209.475 217.736 208.819 217.965 208.36 218.424C207.901 218.872 207.672 219.523 207.672 220.376V225H206.136ZM213.115 225V216.456H214.651V225H213.115ZM211.803 217.672V216.456H214.651V217.672H211.803ZM213.547 215.08C213.205 215.08 212.949 214.989 212.779 214.808C212.619 214.627 212.539 214.397 212.539 214.12C212.539 213.843 212.619 213.613 212.779 213.432C212.949 213.251 213.205 213.16 213.547 213.16C213.888 213.16 214.139 213.251 214.299 213.432C214.469 213.613 214.555 213.843 214.555 214.12C214.555 214.397 214.469 214.627 214.299 214.808C214.139 214.989 213.888 215.08 213.547 215.08ZM222.788 225V222.44H222.532V219.48C222.532 218.893 222.378 218.451 222.068 218.152C221.77 217.853 221.327 217.704 220.74 217.704C220.41 217.704 220.068 217.709 219.716 217.72C219.364 217.731 219.028 217.741 218.708 217.752C218.388 217.763 218.111 217.779 217.876 217.8V216.456C218.111 216.435 218.356 216.419 218.612 216.408C218.879 216.387 219.151 216.376 219.428 216.376C219.706 216.365 219.972 216.36 220.228 216.36C221.103 216.36 221.818 216.467 222.372 216.68C222.927 216.883 223.338 217.219 223.604 217.688C223.871 218.157 224.004 218.792 224.004 219.592V225H222.788ZM219.988 225.224C219.348 225.224 218.794 225.117 218.324 224.904C217.866 224.68 217.508 224.36 217.252 223.944C217.007 223.528 216.884 223.027 216.884 222.44C216.884 221.832 217.018 221.325 217.284 220.92C217.562 220.515 217.962 220.211 218.484 220.008C219.007 219.795 219.636 219.688 220.372 219.688H222.692V220.84H220.308C219.69 220.84 219.215 220.989 218.884 221.288C218.554 221.587 218.388 221.971 218.388 222.44C218.388 222.909 218.554 223.288 218.884 223.576C219.215 223.864 219.69 224.008 220.308 224.008C220.671 224.008 221.018 223.944 221.348 223.816C221.679 223.677 221.951 223.453 222.164 223.144C222.388 222.824 222.511 222.387 222.532 221.832L222.948 222.44C222.895 223.048 222.746 223.56 222.5 223.976C222.266 224.381 221.935 224.691 221.508 224.904C221.092 225.117 220.586 225.224 219.988 225.224ZM226.92 225V213.32H228.456V225H226.92ZM225.736 214.536V213.32H228.456V214.536H225.736Z" fill="white"/>
<path d="M43 259.08V260C42.9988 262.156 42.3005 264.255 41.0093 265.982C39.7182 267.709 37.9033 268.972 35.8354 269.584C33.7674 270.195 31.5573 270.122 29.5345 269.375C27.5117 268.627 25.7847 267.246 24.611 265.437C23.4373 263.628 22.8798 261.488 23.0217 259.336C23.1636 257.185 23.9972 255.136 25.3983 253.497C26.7994 251.858 28.6928 250.715 30.7962 250.24C32.8996 249.765 35.1003 249.982 37.07 250.86" stroke="white" stroke-width="2" stroke-linecap="round" stroke-linejoin="round"/>
<path d="M43 252L33 262.01L30 259.01" stroke="white" stroke-width="2" stroke-linecap="round" stroke-linejoin="round"/>
<path d="M63.2096 265.064V263.624H66.1216C66.8256 263.624 67.4496 263.512 67.9936 263.288C68.5483 263.053 69.0176 262.733 69.4016 262.328C69.7963 261.923 70.095 261.448 70.2976 260.904C70.5003 260.36 70.6016 259.773 70.6016 259.144C70.6016 258.483 70.5003 257.885 70.2976 257.352C70.095 256.808 69.7963 256.339 69.4016 255.944C69.0176 255.539 68.5483 255.229 67.9936 255.016C67.4496 254.803 66.8256 254.696 66.1216 254.696H63.2096V253.256H65.9616C67.0176 253.256 67.935 253.421 68.7136 253.752C69.4923 254.072 70.1376 254.509 70.6496 255.064C71.1723 255.608 71.5616 256.221 71.8176 256.904C72.0736 257.576 72.2016 258.264 72.2016 258.968V259.32C72.2016 260.003 72.0736 260.685 71.8176 261.368C71.5616 262.051 71.1723 262.669 70.6496 263.224C70.1376 263.779 69.4923 264.227 68.7136 264.568C67.935 264.899 67.0176 265.064 65.9616 265.064H63.2096ZM61.9616 265.064V253.256H63.5296V265.064H61.9616ZM78.3299 265.288C77.5832 265.288 76.9272 265.16 76.3619 264.904C75.7965 264.648 75.3165 264.312 74.9219 263.896C74.5379 263.469 74.2445 262.995 74.0419 262.472C73.8499 261.949 73.7539 261.416 73.7539 260.872V260.584C73.7539 260.04 73.8552 259.507 74.0579 258.984C74.2605 258.451 74.5592 257.976 74.9539 257.56C75.3485 257.133 75.8285 256.797 76.3939 256.552C76.9592 256.296 77.6045 256.168 78.3299 256.168C79.0552 256.168 79.7005 256.296 80.2659 256.552C80.8312 256.797 81.3112 257.133 81.7059 257.56C82.1005 257.976 82.3992 258.451 82.6019 258.984C82.8045 259.507 82.9059 260.04 82.9059 260.584V260.872C82.9059 261.416 82.8045 261.949 82.6019 262.472C82.4099 262.995 82.1165 263.469 81.7219 263.896C81.3379 264.312 80.8632 264.648 80.2979 264.904C79.7325 265.16 79.0765 265.288 78.3299 265.288ZM78.3299 263.912C78.9699 263.912 79.5139 263.773 79.9619 263.496C80.4205 263.208 80.7672 262.824 81.0019 262.344C81.2472 261.864 81.3699 261.325 81.3699 260.728C81.3699 260.12 81.2472 259.576 81.0019 259.096C80.7565 258.616 80.4045 258.237 79.9459 257.96C79.4979 257.683 78.9592 257.544 78.3299 257.544C77.7112 257.544 77.1725 257.683 76.7139 257.96C76.2552 258.237 75.9032 258.616 75.6579 259.096C75.4125 259.576 75.2899 260.12 75.2899 260.728C75.2899 261.325 75.4072 261.864 75.6419 262.344C75.8872 262.824 76.2339 263.208 76.6819 263.496C77.1405 263.773 77.6899 263.912 78.3299 263.912ZM88.8704 265.288C88.1344 265.288 87.4944 265.16 86.9504 264.904C86.417 264.648 85.9744 264.307 85.6224 263.88C85.2704 263.443 85.0037 262.963 84.8224 262.44C84.6517 261.917 84.5664 261.395 84.5664 260.872V260.584C84.5664 260.04 84.6517 259.507 84.8224 258.984C85.0037 258.461 85.2704 257.992 85.6224 257.576C85.985 257.149 86.433 256.808 86.9664 256.552C87.4997 256.296 88.1237 256.168 88.8384 256.168C89.553 256.168 90.193 256.301 90.7584 256.568C91.3344 256.835 91.793 257.213 92.1344 257.704C92.4864 258.184 92.6837 258.755 92.7264 259.416H91.2544C91.1797 258.883 90.9344 258.44 90.5184 258.088C90.1024 257.725 89.5424 257.544 88.8384 257.544C88.2304 257.544 87.7237 257.683 87.3184 257.96C86.913 258.237 86.609 258.616 86.4064 259.096C86.2037 259.576 86.1024 260.12 86.1024 260.728C86.1024 261.315 86.2037 261.853 86.4064 262.344C86.609 262.824 86.913 263.208 87.3184 263.496C87.7344 263.773 88.2517 263.912 88.8704 263.912C89.3504 263.912 89.7664 263.827 90.1184 263.656C90.4704 263.485 90.753 263.256 90.9664 262.968C91.1797 262.68 91.3077 262.355 91.3504 261.992H92.8224C92.7904 262.664 92.593 263.245 92.2304 263.736C91.8784 264.227 91.409 264.611 90.8224 264.888C90.2464 265.155 89.5957 265.288 88.8704 265.288ZM97.8695 265.256C96.8562 265.256 96.0775 264.925 95.5335 264.264C94.9895 263.603 94.7175 262.648 94.7175 261.4V256.44H96.2535V261.704C96.2535 262.376 96.4348 262.904 96.7975 263.288C97.1602 263.661 97.6508 263.848 98.2695 263.848C98.9095 263.848 99.4322 263.645 99.8375 263.24C100.243 262.824 100.446 262.259 100.446 261.544V256.44H101.982V265H100.766V261.336H100.958C100.958 262.179 100.846 262.893 100.622 263.48C100.398 264.056 100.062 264.499 99.6135 264.808C99.1762 265.107 98.6162 265.256 97.9335 265.256H97.8695ZM104.956 265V256.456H106.172V260.12H105.98C105.98 259.288 106.087 258.584 106.3 258.008C106.524 257.421 106.855 256.973 107.292 256.664C107.73 256.355 108.284 256.2 108.956 256.2H109.02C109.692 256.2 110.247 256.355 110.684 256.664C111.132 256.973 111.463 257.421 111.676 258.008C111.89 258.584 111.996 259.288 111.996 260.12H111.548C111.548 259.288 111.66 258.584 111.884 258.008C112.108 257.421 112.439 256.973 112.876 256.664C113.324 256.355 113.884 256.2 114.556 256.2H114.62C115.292 256.2 115.852 256.355 116.3 256.664C116.748 256.973 117.079 257.421 117.292 258.008C117.516 258.584 117.628 259.288 117.628 260.12V265H116.092V259.784C116.092 259.091 115.922 258.557 115.58 258.184C115.239 257.8 114.764 257.608 114.156 257.608C113.527 257.608 113.02 257.811 112.636 258.216C112.252 258.611 112.06 259.165 112.06 259.88V265H110.524V259.784C110.524 259.091 110.354 258.557 110.012 258.184C109.671 257.8 109.196 257.608 108.588 257.608C107.959 257.608 107.452 257.811 107.068 258.216C106.684 258.611 106.492 259.165 106.492 259.88V265H104.956ZM124.073 265.288C123.326 265.288 122.681 265.16 122.137 264.904C121.593 264.648 121.15 264.312 120.809 263.896C120.467 263.469 120.211 262.995 120.041 262.472C119.881 261.949 119.801 261.416 119.801 260.872V260.584C119.801 260.029 119.881 259.491 120.041 258.968C120.211 258.445 120.467 257.976 120.809 257.56C121.15 257.133 121.582 256.797 122.105 256.552C122.638 256.296 123.262 256.168 123.977 256.168C124.905 256.168 125.667 256.371 126.265 256.776C126.873 257.171 127.321 257.683 127.609 258.312C127.907 258.941 128.057 259.613 128.057 260.328V261.016H120.473V259.864H126.937L126.585 260.488C126.585 259.88 126.489 259.357 126.297 258.92C126.105 258.472 125.817 258.125 125.433 257.88C125.049 257.635 124.563 257.512 123.977 257.512C123.369 257.512 122.862 257.651 122.457 257.928C122.062 258.205 121.763 258.584 121.561 259.064C121.369 259.544 121.273 260.099 121.273 260.728C121.273 261.336 121.369 261.885 121.561 262.376C121.763 262.856 122.073 263.24 122.489 263.528C122.905 263.805 123.433 263.944 124.073 263.944C124.745 263.944 125.289 263.795 125.705 263.496C126.131 263.197 126.387 262.851 126.473 262.456H127.913C127.795 263.043 127.561 263.549 127.209 263.976C126.857 264.403 126.414 264.728 125.881 264.952C125.347 265.176 124.745 265.288 124.073 265.288ZM130.238 265V256.456H131.454V260.12H131.262C131.262 259.277 131.374 258.568 131.598 257.992C131.832 257.405 132.184 256.963 132.654 256.664C133.123 256.355 133.715 256.2 134.43 256.2H134.494C135.571 256.2 136.366 256.536 136.878 257.208C137.4 257.88 137.662 258.851 137.662 260.12V265H136.126V259.8C136.126 259.139 135.939 258.611 135.566 258.216C135.192 257.811 134.68 257.608 134.03 257.608C133.358 257.608 132.814 257.816 132.398 258.232C131.982 258.648 131.774 259.203 131.774 259.896V265H130.238ZM143.8 265.096C143.16 265.096 142.605 265.005 142.136 264.824C141.677 264.643 141.32 264.333 141.064 263.896C140.819 263.448 140.696 262.845 140.696 262.088V253.864H142.168V262.28C142.168 262.739 142.291 263.096 142.536 263.352C142.792 263.597 143.149 263.72 143.608 263.72H145.112V265.096H143.8ZM139.224 257.608V256.456H145.112V257.608H139.224ZM151.149 265V253.32H153.229L156.685 261.112H156.941L160.381 253.32H162.477V265H160.909V255.032L161.021 255.064L157.709 262.584H155.789L152.461 255.064L152.589 255.032V265H151.149ZM170.812 265V262.44H170.556V259.48C170.556 258.893 170.401 258.451 170.092 258.152C169.793 257.853 169.351 257.704 168.764 257.704C168.433 257.704 168.092 257.709 167.74 257.72C167.388 257.731 167.052 257.741 166.732 257.752C166.412 257.763 166.135 257.779 165.9 257.8V256.456C166.135 256.435 166.38 256.419 166.636 256.408C166.903 256.387 167.175 256.376 167.452 256.376C167.729 256.365 167.996 256.36 168.252 256.36C169.127 256.36 169.841 256.467 170.396 256.68C170.951 256.883 171.361 257.219 171.628 257.688C171.895 258.157 172.028 258.792 172.028 259.592V265H170.812ZM168.012 265.224C167.372 265.224 166.817 265.117 166.348 264.904C165.889 264.68 165.532 264.36 165.276 263.944C165.031 263.528 164.908 263.027 164.908 262.44C164.908 261.832 165.041 261.325 165.308 260.92C165.585 260.515 165.985 260.211 166.508 260.008C167.031 259.795 167.66 259.688 168.396 259.688H170.716V260.84H168.332C167.713 260.84 167.239 260.989 166.908 261.288C166.577 261.587 166.412 261.971 166.412 262.44C166.412 262.909 166.577 263.288 166.908 263.576C167.239 263.864 167.713 264.008 168.332 264.008C168.695 264.008 169.041 263.944 169.372 263.816C169.703 263.677 169.975 263.453 170.188 263.144C170.412 262.824 170.535 262.387 170.556 261.832L170.972 262.44C170.919 263.048 170.769 263.56 170.524 263.976C170.289 264.381 169.959 264.691 169.532 264.904C169.116 265.117 168.609 265.224 168.012 265.224ZM174.847 265V256.456H176.063V260.12H175.871C175.871 259.277 175.983 258.568 176.207 257.992C176.442 257.405 176.794 256.963 177.263 256.664C177.732 256.355 178.324 256.2 179.039 256.2H179.103C180.18 256.2 180.975 256.536 181.487 257.208C182.01 257.88 182.271 258.851 182.271 260.12V265H180.735V259.8C180.735 259.139 180.548 258.611 180.175 258.216C179.802 257.811 179.29 257.608 178.639 257.608C177.967 257.608 177.423 257.816 177.007 258.232C176.591 258.648 176.383 259.203 176.383 259.896V265H174.847ZM190.249 265V262.44H189.993V259.48C189.993 258.893 189.839 258.451 189.529 258.152C189.231 257.853 188.788 257.704 188.201 257.704C187.871 257.704 187.529 257.709 187.177 257.72C186.825 257.731 186.489 257.741 186.169 257.752C185.849 257.763 185.572 257.779 185.337 257.8V256.456C185.572 256.435 185.817 256.419 186.073 256.408C186.34 256.387 186.612 256.376 186.889 256.376C187.167 256.365 187.433 256.36 187.689 256.36C188.564 256.36 189.279 256.467 189.833 256.68C190.388 256.883 190.799 257.219 191.065 257.688C191.332 258.157 191.465 258.792 191.465 259.592V265H190.249ZM187.449 265.224C186.809 265.224 186.255 265.117 185.785 264.904C185.327 264.68 184.969 264.36 184.713 263.944C184.468 263.528 184.345 263.027 184.345 262.44C184.345 261.832 184.479 261.325 184.745 260.92C185.023 260.515 185.423 260.211 185.945 260.008C186.468 259.795 187.097 259.688 187.833 259.688H190.153V260.84H187.769C187.151 260.84 186.676 260.989 186.345 261.288C186.015 261.587 185.849 261.971 185.849 262.44C185.849 262.909 186.015 263.288 186.345 263.576C186.676 263.864 187.151 264.008 187.769 264.008C188.132 264.008 188.479 263.944 188.809 263.816C189.14 263.677 189.412 263.453 189.625 263.144C189.849 262.824 189.972 262.387 189.993 261.832L190.409 262.44C190.356 263.048 190.207 263.56 189.961 263.976C189.727 264.381 189.396 264.691 188.969 264.904C188.553 265.117 188.047 265.224 187.449 265.224ZM197.516 268.328C197.122 268.328 196.722 268.312 196.317 268.28C195.922 268.248 195.543 268.205 195.181 268.152V266.856C195.565 266.909 195.965 266.952 196.381 266.984C196.807 267.027 197.207 267.048 197.581 267.048C198.359 267.048 198.978 266.941 199.437 266.728C199.906 266.525 200.242 266.2 200.445 265.752C200.658 265.315 200.765 264.749 200.765 264.056V262.424L201.277 261.208C201.245 262.072 201.063 262.792 200.733 263.368C200.402 263.933 199.97 264.36 199.437 264.648C198.914 264.925 198.333 265.064 197.693 265.064C197.095 265.064 196.546 264.952 196.045 264.728C195.554 264.493 195.127 264.173 194.765 263.768C194.413 263.363 194.135 262.899 193.933 262.376C193.741 261.843 193.645 261.283 193.645 260.696V260.408C193.645 259.811 193.746 259.256 193.949 258.744C194.151 258.221 194.434 257.768 194.797 257.384C195.159 257 195.591 256.701 196.093 256.488C196.605 256.275 197.165 256.168 197.773 256.168C198.487 256.168 199.117 256.323 199.661 256.632C200.205 256.931 200.631 257.373 200.941 257.96C201.261 258.536 201.437 259.245 201.469 260.088L201.021 260.104V256.456H202.237V263.992C202.237 265.016 202.077 265.843 201.757 266.472C201.447 267.112 200.946 267.581 200.253 267.88C199.57 268.179 198.658 268.328 197.516 268.328ZM197.981 263.656C198.493 263.656 198.957 263.544 199.373 263.32C199.799 263.096 200.135 262.776 200.381 262.36C200.637 261.933 200.765 261.427 200.765 260.84V260.104C200.765 259.528 200.631 259.043 200.365 258.648C200.109 258.253 199.773 257.955 199.357 257.752C198.941 257.549 198.487 257.448 197.997 257.448C197.442 257.448 196.951 257.576 196.525 257.832C196.098 258.088 195.767 258.451 195.533 258.92C195.298 259.379 195.181 259.923 195.181 260.552C195.181 261.181 195.298 261.731 195.533 262.2C195.778 262.669 196.109 263.032 196.525 263.288C196.951 263.533 197.437 263.656 197.981 263.656ZM208.713 265.288C207.967 265.288 207.321 265.16 206.777 264.904C206.233 264.648 205.791 264.312 205.449 263.896C205.108 263.469 204.852 262.995 204.681 262.472C204.521 261.949 204.441 261.416 204.441 260.872V260.584C204.441 260.029 204.521 259.491 204.681 258.968C204.852 258.445 205.108 257.976 205.449 257.56C205.791 257.133 206.223 256.797 206.745 256.552C207.279 256.296 207.903 256.168 208.617 256.168C209.545 256.168 210.308 256.371 210.905 256.776C211.513 257.171 211.961 257.683 212.249 258.312C212.548 258.941 212.697 259.613 212.697 260.328V261.016H205.113V259.864H211.577L211.225 260.488C211.225 259.88 211.129 259.357 210.937 258.92C210.745 258.472 210.457 258.125 210.073 257.88C209.689 257.635 209.204 257.512 208.617 257.512C208.009 257.512 207.503 257.651 207.097 257.928C206.703 258.205 206.404 258.584 206.201 259.064C206.009 259.544 205.913 260.099 205.913 260.728C205.913 261.336 206.009 261.885 206.201 262.376C206.404 262.856 206.713 263.24 207.129 263.528C207.545 263.805 208.073 263.944 208.713 263.944C209.385 263.944 209.929 263.795 210.345 263.496C210.772 263.197 211.028 262.851 211.113 262.456H212.553C212.436 263.043 212.201 263.549 211.849 263.976C211.497 264.403 211.055 264.728 210.521 264.952C209.988 265.176 209.385 265.288 208.713 265.288ZM214.878 265V256.456H216.094V260.12H215.902C215.902 259.288 216.009 258.584 216.222 258.008C216.446 257.421 216.777 256.973 217.214 256.664C217.652 256.355 218.206 256.2 218.878 256.2H218.942C219.614 256.2 220.169 256.355 220.606 256.664C221.054 256.973 221.385 257.421 221.598 258.008C221.812 258.584 221.918 259.288 221.918 260.12H221.47C221.47 259.288 221.582 258.584 221.806 258.008C222.03 257.421 222.361 256.973 222.798 256.664C223.246 256.355 223.806 256.2 224.478 256.2H224.542C225.214 256.2 225.774 256.355 226.222 256.664C226.67 256.973 227.001 257.421 227.214 258.008C227.438 258.584 227.55 259.288 227.55 260.12V265H226.014V259.784C226.014 259.091 225.844 258.557 225.502 258.184C225.161 257.8 224.686 257.608 224.078 257.608C223.449 257.608 222.942 257.811 222.558 258.216C222.174 258.611 221.982 259.165 221.982 259.88V265H220.446V259.784C220.446 259.091 220.276 258.557 219.934 258.184C219.593 257.8 219.118 257.608 218.51 257.608C217.881 257.608 217.374 257.811 216.99 258.216C216.606 258.611 216.414 259.165 216.414 259.88V265H214.878ZM233.995 265.288C233.248 265.288 232.603 265.16 232.059 264.904C231.515 264.648 231.072 264.312 230.731 263.896C230.389 263.469 230.133 262.995 229.963 262.472C229.803 261.949 229.723 261.416 229.723 260.872V260.584C229.723 260.029 229.803 259.491 229.963 258.968C230.133 258.445 230.389 257.976 230.731 257.56C231.072 257.133 231.504 256.797 232.027 256.552C232.56 256.296 233.184 256.168 233.899 256.168C234.827 256.168 235.589 256.371 236.187 256.776C236.795 257.171 237.243 257.683 237.531 258.312C237.829 258.941 237.979 259.613 237.979 260.328V261.016H230.395V259.864H236.859L236.507 260.488C236.507 259.88 236.411 259.357 236.219 258.92C236.027 258.472 235.739 258.125 235.355 257.88C234.971 257.635 234.485 257.512 233.899 257.512C233.291 257.512 232.784 257.651 232.379 257.928C231.984 258.205 231.685 258.584 231.483 259.064C231.291 259.544 231.195 260.099 231.195 260.728C231.195 261.336 231.291 261.885 231.483 262.376C231.685 262.856 231.995 263.24 232.411 263.528C232.827 263.805 233.355 263.944 233.995 263.944C234.667 263.944 235.211 263.795 235.627 263.496C236.053 263.197 236.309 262.851 236.395 262.456H237.835C237.717 263.043 237.483 263.549 237.131 263.976C236.779 264.403 236.336 264.728 235.803 264.952C235.269 265.176 234.667 265.288 233.995 265.288ZM240.16 265V256.456H241.376V260.12H241.184C241.184 259.277 241.296 258.568 241.52 257.992C241.754 257.405 242.106 256.963 242.576 256.664C243.045 256.355 243.637 256.2 244.352 256.2H244.416C245.493 256.2 246.288 256.536 246.8 257.208C247.322 257.88 247.584 258.851 247.584 260.12V265H246.048V259.8C246.048 259.139 245.861 258.611 245.488 258.216C245.114 257.811 244.602 257.608 243.952 257.608C243.28 257.608 242.736 257.816 242.32 258.232C241.904 258.648 241.696 259.203 241.696 259.896V265H240.16ZM253.722 265.096C253.082 265.096 252.527 265.005 252.058 264.824C251.599 264.643 251.242 264.333 250.986 263.896C250.741 263.448 250.618 262.845 250.618 262.088V253.864H252.09V262.28C252.09 262.739 252.213 263.096 252.458 263.352C252.714 263.597 253.071 263.72 253.53 263.72H255.034V265.096H253.722ZM249.146 257.608V256.456H255.034V257.608H249.146Z" fill="white"/>
<rect x="27" y="59" width="222" height="3" rx="1.5" fill="white"/>
</svg>
