<svg width="19" height="18" viewBox="0 0 19 18" fill="none" xmlns="http://www.w3.org/2000/svg">
<path d="M10.3138 1.50092C10.8915 1.49882 11.4693 1.50432 12.0468 1.51742L12.2004 1.52267C12.3777 1.52867 12.5527 1.53617 12.7641 1.54517C13.6064 1.58267 14.1811 1.70867 14.6854 1.89392C15.2079 2.08442 15.6481 2.34242 16.0883 2.75942C16.4907 3.13413 16.8022 3.58738 17.0011 4.08767C17.1966 4.56542 17.3296 5.11067 17.3692 5.90867C17.3787 6.10817 17.3866 6.27467 17.3929 6.44267L17.3977 6.58817C17.4117 7.13507 17.4178 7.68212 17.4159 8.22917L17.4167 8.78867V9.77117C17.4186 10.3185 17.4126 10.8658 17.3985 11.4129L17.3937 11.5584C17.3874 11.7264 17.3795 11.8922 17.37 12.0924C17.3304 12.8904 17.1958 13.4349 17.0011 13.9127C16.8029 14.4135 16.4913 14.8671 16.0883 15.2417C15.6924 15.6229 15.2137 15.918 14.6854 16.1064C14.1811 16.2917 13.6064 16.4177 12.7641 16.4552C12.5527 16.4642 12.3777 16.4717 12.2004 16.4777L12.0468 16.4822C11.4693 16.4955 10.8916 16.5013 10.3138 16.4994L9.72326 16.5002H8.68697C8.10926 16.502 7.53155 16.4963 6.95401 16.4829L6.80043 16.4784C6.61249 16.472 6.4246 16.4645 6.23676 16.4559C5.39443 16.4184 4.81968 16.2909 4.31459 16.1064C3.7863 15.9184 3.30778 15.6233 2.91255 15.2417C2.50963 14.8669 2.19785 14.4133 1.99897 13.9127C1.80343 13.4349 1.67043 12.8904 1.63084 12.0924C1.62203 11.9145 1.61411 11.7365 1.60709 11.5584L1.60313 11.4129C1.58854 10.8658 1.58194 10.3185 1.58334 9.77117V8.22917C1.58113 7.68212 1.58694 7.13507 1.60076 6.58817L1.6063 6.44267C1.61263 6.27467 1.62055 6.10817 1.63005 5.90867C1.66963 5.10992 1.80263 4.56617 1.99818 4.08767C2.19718 3.58714 2.50956 3.13401 2.91334 2.76017C3.3083 2.37824 3.78652 2.0826 4.31459 1.89392C4.81968 1.70867 5.39363 1.58267 6.23676 1.54517L6.80043 1.52267L6.95401 1.51892C7.53128 1.5051 8.10872 1.49885 8.68618 1.50017L10.3138 1.50092ZM9.50001 5.25092C8.97554 5.2439 8.45482 5.33569 7.96812 5.52097C7.48141 5.70626 7.03844 5.98133 6.66493 6.33021C6.29142 6.6791 5.99483 7.09483 5.79239 7.55325C5.58995 8.01166 5.4857 8.50363 5.4857 9.00055C5.4857 9.49747 5.58995 9.98943 5.79239 10.4479C5.99483 10.9063 6.29142 11.322 6.66493 11.6709C7.03844 12.0198 7.48141 12.2948 7.96812 12.4801C8.45482 12.6654 8.97554 12.7572 9.50001 12.7502C10.5498 12.7502 11.5566 12.3551 12.299 11.6518C13.0413 10.9486 13.4583 9.99473 13.4583 9.00017C13.4583 8.00561 13.0413 7.05178 12.299 6.34852C11.5566 5.64526 10.5498 5.25092 9.50001 5.25092ZM9.50001 6.75092C9.81549 6.74542 10.129 6.79952 10.4221 6.91008C10.7153 7.02064 10.9823 7.18543 11.2075 7.39483C11.4326 7.60423 11.6115 7.85405 11.7337 8.12968C11.8558 8.40531 11.9187 8.70123 11.9188 9.00017C11.9188 9.2991 11.856 9.59504 11.734 9.87071C11.6119 10.1464 11.4331 10.3963 11.208 10.6057C10.9829 10.8152 10.716 10.9801 10.4229 11.0907C10.1297 11.2014 9.81629 11.2556 9.5008 11.2502C8.87091 11.2502 8.26682 11.0131 7.82142 10.5912C7.37602 10.1692 7.1258 9.59691 7.1258 9.00017C7.1258 8.40344 7.37602 7.83114 7.82142 7.40918C8.26682 6.98723 8.87091 6.75017 9.5008 6.75017L9.50001 6.75092ZM13.6563 4.12592C13.4009 4.13561 13.1593 4.23854 12.9822 4.41315C12.8052 4.58777 12.7063 4.82052 12.7063 5.06267C12.7063 5.30482 12.8052 5.53758 12.9822 5.71219C13.1593 5.88681 13.4009 5.98974 13.6563 5.99942C13.9187 5.99942 14.1704 5.90065 14.356 5.72484C14.5416 5.54902 14.6458 5.31056 14.6458 5.06192C14.6458 4.81328 14.5416 4.57483 14.356 4.39901C14.1704 4.2232 13.9187 4.12442 13.6563 4.12442V4.12592Z" fill="#CDCDCD"/>
</svg>
